<svg id="Layer_1" data-name="Layer 1" xmlns="http://www.w3.org/2000/svg" viewBox="0 0 306.35 306.29"><defs><style>.cls-1{fill:#1a8040;}</style></defs><title>Icon-04</title><path class="cls-1" d="M334.46,167.91c-5.69-80.69-73-142.45-152.62-142.37-3.68,0-7.27.09-11,.35-84.37,6-148,79.11-142,163.48A153.14,153.14,0,0,0,181.5,331.83c3.59,0,7.27-.09,10.86-0.35A153.32,153.32,0,0,0,334.46,167.91ZM171.86,39c3.24-.26,6.66-0.35,10-0.35a139.33,139.33,0,0,1,101.1,43.54c-13.32-.26-35.22-0.09-52.39,3.5-19.8,4-26.11,27.33-26.81,36-2.28,25.06,1.75,54.58,5.34,80.6,1.14,8.32,2.19,16.12,3,23,1.75,16.73-1.23,30-8.76,38.2-6,6.57-14.89,10-25.23,10-23.83-.35-38.29-18.31-38.64-48.19-0.35-34.34,6.22-54.49,22.6-100.75,3.77-10.6,7.27-23.92,1.14-32.85Q157.8,84,145.05,83.63c-19.45-.53-47.75-1.14-64.74-1.58A138.29,138.29,0,0,1,171.86,39Zm19.62,279.3c-3.33.26-6.66,0.35-10,.35-73.15,0-134.39-57.21-139.56-130.19A139.09,139.09,0,0,1,72.77,90.64c14.81,0.35,49.41,1.14,72,1.75,5.52,0.18,9.29,1.66,11.13,4.38,4.47,6.4-.53,20.33-2.1,25-16.73,47.31-23.57,68-23.13,103.82,0.44,41.35,24.71,56.42,47.31,56.77h0.61c12.62,0,23.65-4.56,31.19-12.79,9.29-10.16,13.05-25.76,11-45.12-0.79-7-1.84-14.89-3-23.3-3.5-25.58-7.45-54.58-5.34-78.59,0.61-6.4,5.43-25.32,19.89-28.3,20.41-4.21,48.89-3.33,58.61-2.89a139.11,139.11,0,0,1,30.4,77.54C326.75,245.89,268.49,312.91,191.48,318.34Z" transform="translate(-28.49 -25.55)"/><path class="cls-1" d="M216,52.41S193.16,87,190.76,136.16c-2.51,51.57,31.25,121.31-12.38,125.22-14.24,1.28-24.08-10.58-26.08-26.83-3.18-25.69,6.5-62.56,10.68-77C170.64,131,191.16,78.13,216,52.41Z" transform="translate(-28.49 -25.55)"/><rect class="cls-1" x="233.99" y="150" width="13.14" height="65.36" transform="translate(-49.68 6.38) rotate(-7.27)"/><polygon class="cls-1" points="226.89 138.66 195.49 143.44 203.36 98.71 226.89 138.66"/><rect class="cls-1" x="76.9" y="176.11" width="65.36" height="13.14" transform="translate(-114 242.7) rotate(-82.73)"/><polygon class="cls-1" points="66.27 138.66 97.67 143.44 89.8 98.71 66.27 138.66"/><path class="cls-1" d="M266.74,120.67a6.48,6.48,0,0,1-6.54,6.41h-0.11a6.59,6.59,0,0,1-6.57-6.6q0-.21,0-0.43A6.62,6.62,0,0,1,266.74,120.67Z" transform="translate(-28.49 -25.55)"/><path class="cls-1" d="M293.15,144.45a6.75,6.75,0,0,1,6.71,6.48,6.58,6.58,0,0,1-6.27,6.81,6.49,6.49,0,0,1-6.93-6q0-.3,0-0.6A6.73,6.73,0,0,1,293.15,144.45Z" transform="translate(-28.49 -25.55)"/><path class="cls-1" d="M280.55,185a6.75,6.75,0,0,1,6.71,6.48,6.58,6.58,0,0,1-6.27,6.81,6.49,6.49,0,0,1-6.93-6q0-.3,0-0.6A6.73,6.73,0,0,1,280.55,185Z" transform="translate(-28.49 -25.55)"/><path class="cls-1" d="M94.81,111.21a6.62,6.62,0,0,1,7.09,6.1q0,0.21,0,.43a6.59,6.59,0,0,1-6.57,6.6H95.24a6.48,6.48,0,0,1-6.54-6.41A6.62,6.62,0,0,1,94.81,111.21Z" transform="translate(-28.49 -25.55)"/><path class="cls-1" d="M72.07,146.2q0,0.3,0,.6a6.49,6.49,0,0,1-6.93,6A6.58,6.58,0,0,1,58.86,146,6.61,6.61,0,0,1,72.07,146.2Z" transform="translate(-28.49 -25.55)"/><path class="cls-1" d="M80.28,188.36q0,0.3,0,.6a6.49,6.49,0,0,1-6.93,6,6.58,6.58,0,0,1-6.27-6.81A6.61,6.61,0,0,1,80.28,188.36Z" transform="translate(-28.49 -25.55)"/><path class="cls-1" d="M117.06,242.11q0,0.3,0,.6a6.49,6.49,0,0,1-6.93,6,6.58,6.58,0,0,1-6.27-6.81A6.61,6.61,0,0,1,117.06,242.11Z" transform="translate(-28.49 -25.55)"/><path class="cls-1" d="M80.83,233.26q0,0.3,0,.6a6.49,6.49,0,0,1-6.93,6,6.58,6.58,0,0,1-6.27-6.81A6.61,6.61,0,0,1,80.83,233.26Z" transform="translate(-28.49 -25.55)"/><path class="cls-1" d="M129.56,283.91q0,0.3,0,.6a6.49,6.49,0,0,1-6.93,6,6.58,6.58,0,0,1-6.27-6.81A6.61,6.61,0,0,1,129.56,283.91Z" transform="translate(-28.49 -25.55)"/><path class="cls-1" d="M178.84,299q0,0.3,0,.6a6.49,6.49,0,0,1-6.93,6,6.58,6.58,0,0,1-6.27-6.81A6.61,6.61,0,0,1,178.84,299Z" transform="translate(-28.49 -25.55)"/><path class="cls-1" d="M239.62,284.73q0,0.3,0,.6a6.49,6.49,0,0,1-6.93,6,6.58,6.58,0,0,1-6.27-6.81A6.61,6.61,0,0,1,239.62,284.73Z" transform="translate(-28.49 -25.55)"/><path class="cls-1" d="M253.31,240.93q0,0.3,0,.6a6.49,6.49,0,0,1-6.93,6,6.58,6.58,0,0,1-6.27-6.81A6.61,6.61,0,0,1,253.31,240.93Z" transform="translate(-28.49 -25.55)"/><path class="cls-1" d="M295.47,237.09q0,0.3,0,.6a6.49,6.49,0,0,1-6.93,6,6.58,6.58,0,0,1-6.27-6.81A6.61,6.61,0,0,1,295.47,237.09Z" transform="translate(-28.49 -25.55)"/></svg>