<?xml version="1.0" encoding="UTF-8"?>
<svg width="106px" height="160px" viewBox="0 0 106 160" version="1.1" xmlns="http://www.w3.org/2000/svg" xmlns:xlink="http://www.w3.org/1999/xlink">
    <!-- Generator: Sketch 41.1 (35376) - http://www.bohemiancoding.com/sketch -->
    <title>Page 1 Copy 2</title>
    <desc>Created with Sketch.</desc>
    <defs></defs>
    <g id="Page-1" stroke="none" stroke-width="1" fill="none" fill-rule="evenodd">
        <g id="Large-Device-Desktops" transform="translate(-650.000000, -3358.000000)">
            <g id="Page-1-Copy-2" transform="translate(650.000000, 3358.000000)">
                <g id="Group-30">
                    <path d="M106,28.1538462 L106,60.5307692 C106,60.5307692 89.722234,53.4191077 77.5265957,57.7153846 C73.2640426,59.2131692 69.2044681,60.6433846 65.0264894,61.6512923 C64.8009574,61.7019692 64.5754255,61.7582769 64.3442553,61.8089538 C63.4759574,62.0172923 62.6020213,62.1974769 61.7168085,62.3551385 C61.4912766,62.3945538 61.2601064,62.4339692 61.0289362,62.4733846 C60.7470213,61.2008308 60.4594681,59.8776 60.155,58.4980615 C59.9069149,57.3606462 59.6475532,56.2063385 59.3769149,55.0351385 C59.3374468,54.8493231 59.2923404,54.6635077 59.247234,54.4776923 C59.0893617,53.7963692 58.9314894,53.1150462 58.7679787,52.4280923 C58.6044681,51.7467692 58.4409574,51.0598154 58.2718085,50.3728615 C57.9391489,48.9989538 57.5952128,47.6250462 57.2512766,46.2624 C57.2456383,46.2342462 57.24,46.2117231 57.2343617,46.1892 C56.9355319,45.0123692 56.6367021,43.8468 56.3378723,42.6924923 C56.2984043,42.5348308 56.2589362,42.3771692 56.2138298,42.2195077 C56.1292553,41.8872923 56.0390426,41.5550769 55.9544681,41.2284923 C55.858617,40.8568615 55.762766,40.4964923 55.6669149,40.1361231 C55.5034043,39.5223692 55.3398936,38.9142462 55.1820213,38.3117538 C55.0467021,37.8162462 54.9170213,37.3263692 54.7873404,36.8421231 C54.6407447,36.3072 54.4997872,35.7779077 54.3588298,35.2542462 C54.1953191,34.6635785 53.8124787,33.1077969 53.4132872,31.4776892 C52.9983085,29.7862062 54.2810213,28.1538462 56.024383,28.1538462 L106,28.1538462 Z" id="Fill-2" fill="#B3B5B7"></path>
                    <path d="M56.9355319,139.305231 C56.7438298,140.071015 56.0559574,140.577785 55.3004255,140.577785 C55.1594681,140.577785 55.0185106,140.560892 54.8831915,140.527108 C44.9034043,137.993262 40.2969149,129.648462 39.3891489,123.2688 C38.5659574,117.536677 40.2518085,112.756154 42.2082979,107.221108 C43.1160638,104.636585 44.1535106,101.702954 45.0443617,98.3582769 C47.226383,90.1767692 45.1965957,76.7248615 43.572766,65.9137846 C43.3641489,64.5286154 43.1611702,63.1828615 42.9694681,61.8877846 C42.9243617,61.8821538 42.8848936,61.8708923 42.8397872,61.8596308 C38.7407447,60.9192923 34.2808511,59.4046154 29.3191489,57.1523077 C18.5274468,52.2535385 0,60.5307692 0,60.5307692 L0,28.1538462 L37.606883,28.1538462 C38.8749362,28.1538462 39.9738404,29.03844 40.2360213,30.2777723 C40.2377128,30.2845292 40.2388404,30.2918492 40.2405319,30.2991692 C40.336383,30.7271077 40.4265957,31.1606769 40.5168085,31.5886154 C40.6746809,32.3431385 40.8381915,33.1032923 40.9960638,33.8634462 C41.0806383,34.2632308 41.1652128,34.6630154 41.2497872,35.0571692 C41.3738298,35.6484 41.4978723,36.2396308 41.6219149,36.8252308 C42.0391489,38.8128923 42.4451064,40.7836615 42.8397872,42.7037538 C42.9412766,43.1936308 43.0371277,43.6778769 43.138617,44.1564923 C43.2344681,44.6294769 43.3246809,45.1024615 43.4205319,45.5641846 C44.7004255,51.8875385 45.7435106,57.4113231 46.2114894,60.6659077 C46.431383,62.1805846 46.6681915,63.7740923 46.9162766,65.4126462 C48.5908511,76.5277846 50.671383,90.3625846 48.3089362,99.2310462 C47.3842553,102.6996 46.3298936,105.7008 45.3939362,108.341631 C43.516383,113.668338 42.0335106,117.880154 42.7382979,122.790185 C43.4994681,128.133785 47.3560638,135.132831 55.7120213,137.255631 C56.6197872,137.480862 57.1667021,138.404308 56.9355319,139.305231" id="Fill-4" fill="#B3B5B7"></path>
                    <path d="M69.6442553,139.491046 C68.7815957,139.845785 67.7948936,139.429108 67.4396809,138.561969 C67.0901064,137.700462 67.5073404,136.715077 68.37,136.365969 C79.3026596,131.923292 79.1278723,120.442154 78.8121277,117.024277 C78.3554255,112.086092 76.0155319,107.508277 73.3035106,102.209723 C70.4448936,96.6014769 67.197234,90.2556 65.7087234,82.2317538 C64.2878723,74.5570154 62.3342021,68.5771385 60.9922872,62.3551385 C61.8775,62.1974769 63.0615426,60.3168 63.9298404,60.1084615 C64.1610106,60.0577846 64.4795745,60.7926 64.7051064,60.7419231 C66.0526596,66.9864462 67.6031915,73.9038462 69.0353191,81.618 C70.433617,89.1519692 73.4275532,95.0079692 76.32,100.672523 C79.0658511,106.049908 81.6651064,111.128862 82.1781915,116.714585 C83.1648936,127.390523 78.4794681,135.904246 69.6442553,139.491046" id="Fill-6" fill="#B3B5B7"></path>
                    <path d="M69.2088096,84.8838462 C68.08115,79.8161538 71.8870011,80.0976923 73.5784904,81.7869231 C75.2699798,83.4761538 77.6662564,82.6315385 79.9215755,82.2092308 C82.1768947,81.7869231 82.6702457,86.7138462 86.4056181,85.4469231 C89.3448628,84.4497138 89.9272989,80.8302554 95.9907245,80.52 C98.7393947,80.3792308 99.0917883,71.2996154 97.6822138,70.2438462 C96.5714691,69.4121815 93.0306181,69.3992308 90.9162564,67.9915385 C88.8018947,66.5838462 85.418916,67.2876923 83.5864691,69.9623077 C81.7540223,72.6369231 77.1024266,66.7246154 71.4641287,68.5546154 C65.8258309,70.3846154 64.9800862,65.3873077 64.9800862,65.3873077 L69.2088096,84.8838462 Z" id="Fill-8" fill="#B3B5B7"></path>
                    <path d="M63.8477468,142.96219 C63.8477468,144.397473 62.6823106,145.561353 61.2451085,145.561353 C59.8079064,145.561353 58.6424702,144.397473 58.6424702,142.96219 C58.6424702,141.526907 59.8079064,140.363027 61.2451085,140.363027 C62.6823106,140.363027 63.8477468,141.526907 63.8477468,142.96219" id="Fill-10" fill="#0B7F40"></path>
                    <path d="M62.1127298,142.96219 C62.1127298,143.440806 61.7242511,143.828766 61.2449957,143.828766 C60.7663043,143.828766 60.3778255,143.440806 60.3778255,142.96219 C60.3778255,142.483575 60.7663043,142.095615 61.2449957,142.095615 C61.7242511,142.095615 62.1127298,142.483575 62.1127298,142.96219" id="Fill-12" fill="#FEFEFE"></path>
                    <path d="M68.6050606,144.862575 C68.6050606,146.297858 67.4396245,147.461738 66.0024223,147.461738 C64.5652202,147.461738 63.399784,146.297858 63.399784,144.862575 C63.399784,143.427292 64.5652202,142.263412 66.0024223,142.263412 C67.4396245,142.263412 68.6050606,143.427292 68.6050606,144.862575" id="Fill-14" fill="#0B7F40"></path>
                    <path d="M66.8700436,144.862575 C66.8700436,145.34119 66.4815649,145.72915 66.0023096,145.72915 C65.5236181,145.72915 65.1351394,145.34119 65.1351394,144.862575 C65.1351394,144.383959 65.5236181,143.995999 66.0023096,143.995999 C66.4815649,143.995999 66.8700436,144.383959 66.8700436,144.862575" id="Fill-16" fill="#FEFEFE"></path>
                    <path d="M62.3324543,147.818729 C62.3324543,149.254012 61.1670181,150.417892 59.729816,150.417892 C58.2926138,150.417892 57.1271777,149.254012 57.1271777,147.818729 C57.1271777,146.383446 58.2926138,145.219566 59.729816,145.219566 C61.1670181,145.219566 62.3324543,146.383446 62.3324543,147.818729" id="Fill-18" fill="#0B7F40"></path>
                    <path d="M60.5974372,147.818729 C60.5974372,148.297344 60.2089585,148.685304 59.7297032,148.685304 C59.2510117,148.685304 58.862533,148.297344 58.862533,147.818729 C58.862533,147.340113 59.2510117,146.952153 59.7297032,146.952153 C60.2089585,146.952153 60.5974372,147.340113 60.5974372,147.818729" id="Fill-20" fill="#FEFEFE"></path>
                    <path d="M65.2220819,151.795459 C65.2220819,153.230742 64.0566457,154.394622 62.6194436,154.394622 C61.1822415,154.394622 60.0168053,153.230742 60.0168053,151.795459 C60.0168053,150.360176 61.1822415,149.196296 62.6194436,149.196296 C64.0566457,149.196296 65.2220819,150.360176 65.2220819,151.795459" id="Fill-22" fill="#0B7F40"></path>
                    <path d="M63.4870649,151.795459 C63.4870649,152.274075 63.0985862,152.662035 62.6193309,152.662035 C62.1406394,152.662035 61.7521606,152.274075 61.7521606,151.795459 C61.7521606,151.316844 62.1406394,150.928884 62.6193309,150.928884 C63.0985862,150.928884 63.4870649,151.316844 63.4870649,151.795459" id="Fill-24" fill="#FEFEFE"></path>
                    <path d="M69.0982989,138.106327 C69.0982989,138.106327 75.6528202,146.799109 69.8735649,154.470469 C64.602884,161.467826 56.0247777,157.81402 54.1923309,152.32402 C52.359884,146.83402 55.3199904,138.915469 55.3199904,138.915469" id="Stroke-26" stroke="#B3B5B7" stroke-width="3" stroke-linecap="round"></path>
                    <path d="M73.2978723,119.839662 C73.2978723,120.284492 73.2640426,120.723692 73.2020213,121.157262 C73.2076596,121.162892 73.2076596,121.174154 73.2020213,121.179785 C72.6043617,127.863508 66.9829787,133.100123 60.1324468,133.100123 C53.9923404,133.100123 48.8502128,128.888308 47.4237234,123.201231 C47.3560638,122.959108 47.2996809,122.711354 47.2489362,122.457969 C47.2151064,122.305938 47.1869149,122.148277 47.1643617,121.990615 C47.1305319,121.776646 47.1023404,121.557046 47.0797872,121.337446 C47.017766,120.841938 46.9895745,120.346431 46.9895745,119.839662 C46.9895745,108.392308 54.6914894,103.696246 53.377766,86.4323077 C51.3987234,60.4406769 46.8091489,44.7083077 42.9469149,26.9319692 C41.5711702,20.5917231 39.011383,9.90452308 36.6207447,0 L43.2626596,0 C50.6544681,27.3824308 57.4711702,58.2334154 63.2447872,89.9965846 C65.872234,104.433877 73.2978723,110.081538 73.2978723,119.839662" id="Fill-28" fill="#696A6A"></path>
                </g>
            </g>
        </g>
    </g>
</svg>