<svg id="Layer_1" data-name="Layer 1" xmlns="http://www.w3.org/2000/svg" viewBox="0 0 38.91 19.64"><defs><style>.cls-1{fill:#56c3bb;}</style></defs><title>Icon_</title><path class="cls-1" d="M37.68,2A1,1,0,0,0,38.13.05C38,0,34.44-.73,31.73,4.7c-1.19,2.4-5,8-14.34,8C5.6,12.67,2.08,4.35,1.93,4a1,1,0,0,0-1.86.74,15.75,15.75,0,0,0,4.22,5.5,3.41,3.41,0,0,1,0,3.63,0.8,0.8,0,1,0,1.43.72,5.78,5.78,0,0,0,.67-2.81,17.91,17.91,0,0,0,1.84,1A4.92,4.92,0,0,1,8.74,17a0.8,0.8,0,0,0,.56,1l0.21,0a0.8,0.8,0,0,0,.77-0.59,7.1,7.1,0,0,0,.06-3.83,20,20,0,0,0,2.36.63,4.6,4.6,0,0,1,1.78,4.49,0.8,0.8,0,0,0,.67.91h0.12A0.8,0.8,0,0,0,16.08,19a6.17,6.17,0,0,0-.89-4.39c0.58,0.05,1.19.07,1.81,0.08a5.54,5.54,0,0,1,4,4.27,0.8,0.8,0,1,0,1.54-.43,7.77,7.77,0,0,0-2.44-4c0.54-.06,1.06-0.14,1.57-0.24a7.17,7.17,0,0,1,5.47,3.65,0.8,0.8,0,0,0,1.39-.78,8.63,8.63,0,0,0-3.94-3.68c0.44-.16.86-0.33,1.26-0.52a6.69,6.69,0,0,1,6,2.18A0.8,0.8,0,1,0,33,14.06a8,8,0,0,0-4.59-2.64,16.58,16.58,0,0,0,1.44-1.14A8.48,8.48,0,0,1,36,11a0.8,0.8,0,0,0,.78-1.4,9.89,9.89,0,0,0-5.14-1.22C32,8,32.3,7.61,32.55,7.24a5.83,5.83,0,0,1,5.23-.66A0.8,0.8,0,0,0,38.23,5a8,8,0,0,0-4.33-.16C35.75,1.7,37.62,2,37.68,2Z"/><path class="cls-1" d="M16.5,10.77c7.68,0,11.16-3.77,12.43-5.69L29.32,5.3A0.43,0.43,0,0,0,30,5l0.26-3.12a0.43,0.43,0,0,0-.71-0.37L27.16,3.37a0.43,0.43,0,0,0,.06.71l0.32,0.19c-1.13,1.63-4.23,4.89-11,4.89A14,14,0,0,1,5.85,4.32a0.8,0.8,0,0,0-1.28,1A15.38,15.38,0,0,0,16.5,10.77Z"/></svg>