<svg id="Layer_1" data-name="Layer 1" xmlns="http://www.w3.org/2000/svg" viewBox="0 0 38.96 25.43"><defs><style>.cls-1{fill:none;}.cls-2{fill:#56c3bb;}</style></defs><title>Icon_</title><circle class="cls-1" cx="17.5" cy="15.29" r="1.72"/><path class="cls-2" d="M38.84,18.54a1,1,0,0,0-1.17-.78c-0.09,0-2,.31-3.82-2.89a7,7,0,0,0,1.8.24,8.93,8.93,0,0,0,2.54-.39,0.8,0.8,0,0,0-.45-1.53,5.83,5.83,0,0,1-5.23-.66c-0.25-.37-0.55-0.77-0.89-1.18H32a9.87,9.87,0,0,0,4.81-1.23A0.8,0.8,0,1,0,36,8.73a8.48,8.48,0,0,1-6.16.76,16.58,16.58,0,0,0-1.45-1.14A8,8,0,0,0,33,5.71a0.8,0.8,0,0,0-1.2-1.06,6.65,6.65,0,0,1-6,2.19c-0.4-.19-0.83-0.36-1.27-0.52a8.62,8.62,0,0,0,3.94-3.68,0.8,0.8,0,1,0-1.39-.78,7.15,7.15,0,0,1-5.43,3.66c-0.51-.1-1.05-0.18-1.6-0.25a7.75,7.75,0,0,0,2.44-4A0.8,0.8,0,0,0,20.92.84,5.55,5.55,0,0,1,17,5.1c-0.63,0-1.25,0-1.84.1A6.33,6.33,0,0,0,16,.8,0.8,0.8,0,0,0,14.46,1a4.89,4.89,0,0,1-1.72,4.54,18.14,18.14,0,0,0-2.48.75,7,7,0,0,0,0-4,0.8,0.8,0,1,0-1.54.42c0.86,3.15-.88,4.69-1,4.77l0,0a17.41,17.41,0,0,0-1.47,1A5.69,5.69,0,0,0,5.31,5.6a0.8,0.8,0,1,0-1.36.84,3.31,3.31,0,0,1,.11,4,18.16,18.16,0,0,0-4,6A1,1,0,0,0,1.94,17a15.84,15.84,0,0,1,12.2-9.67,8.43,8.43,0,0,0,.1,15.84c-6.58-1-8.93-5.35-9-5.56a1,1,0,0,0-1.78.91C3.56,18.85,7,25.43,17,25.43s14.55-6.61,14.74-6.89a1,1,0,1,0-1.65-1.13A15.91,15.91,0,0,1,20,23.19a8.45,8.45,0,0,0,5.52-7.91,1,1,0,0,0-2,0,6.44,6.44,0,1,1-6.44-6.44,1,1,0,0,0,1-1,1,1,0,0,0-.32-0.73c9.06,0.16,12.76,5.6,13.94,8,2.08,4.18,4.67,4.7,5.82,4.7a2.82,2.82,0,0,0,.59-0.05A1,1,0,0,0,38.84,18.54Z"/><path class="cls-2" d="M22.45,11.71a1,1,0,1,0,1.67-1.11,8.5,8.5,0,0,0-2.89-2.68,1,1,0,0,0-1,1.74A6.49,6.49,0,0,1,22.45,11.71Z"/><path class="cls-2" d="M17.5,11.57a3.72,3.72,0,1,0,3.72,3.72A3.72,3.72,0,0,0,17.5,11.57Zm0,5.44a1.72,1.72,0,1,1,1.72-1.72A1.72,1.72,0,0,1,17.5,17Z"/></svg>