<svg id="Layer_1" data-name="Layer 1" xmlns="http://www.w3.org/2000/svg" viewBox="0 0 27.55 27.55"><defs><style>.cls-1{fill:#56c3bb;}</style></defs><title>Icon_</title><path class="cls-1" d="M24.42,7.71a1,1,0,0,1-.83-0.45,11.88,11.88,0,0,0-4-3.75,1,1,0,0,1,1-1.74,13.89,13.89,0,0,1,4.71,4.38A1,1,0,0,1,24.42,7.71Z"/><path class="cls-1" d="M13.77,27.55A13.77,13.77,0,1,1,13.77,0a1,1,0,0,1,0,2A11.77,11.77,0,1,0,25.55,13.77a1,1,0,0,1,2,0A13.79,13.79,0,0,1,13.77,27.55Z"/><path class="cls-1" d="M13.1,15a1,1,0,0,1-1-1.29L15,4.38A1,1,0,1,1,16.94,5l-2.48,8H21a1,1,0,0,1,0,2l-7.85,0h0Z"/></svg>