<svg id="Layer_1" data-name="Layer 1" xmlns="http://www.w3.org/2000/svg" viewBox="0 0 27.55 27.55"><defs><style>.cls-1{fill:#56c3bb;}</style></defs><title>Icon_</title><path class="cls-1" d="M24.42,7.71a1,1,0,0,1-.83-0.45,11.9,11.9,0,0,0-4-3.75,1,1,0,1,1,1-1.74,13.9,13.9,0,0,1,4.71,4.38A1,1,0,0,1,24.42,7.71Z"/><path class="cls-1" d="M13.77,27.55A13.77,13.77,0,1,1,13.77,0a1,1,0,1,1,0,2A11.77,11.77,0,1,0,25.55,13.77a1,1,0,0,1,2,0A13.79,13.79,0,0,1,13.77,27.55Z"/><path class="cls-1" d="M14.54,21.47H13.15A2.47,2.47,0,0,1,10.68,19V16.88H8.56A2.47,2.47,0,0,1,6.1,14.41V13a2.47,2.47,0,0,1,2.47-2.47h2.12V8.44A2.48,2.48,0,0,1,13.15,6h1.38A2.48,2.48,0,0,1,17,8.44v2.12h2.12A2.47,2.47,0,0,1,21.6,13v1.39a2.47,2.47,0,0,1-2.47,2.47H17V19A2.47,2.47,0,0,1,14.54,21.47Zm-6-8.91A0.48,0.48,0,0,0,8.1,13v1.39a0.48,0.48,0,0,0,.47.47h4.12V19a0.48,0.48,0,0,0,.47.47h1.38A0.48,0.48,0,0,0,15,19V14.88h4.12a0.48,0.48,0,0,0,.47-0.47V13a0.48,0.48,0,0,0-.47-0.47H15V8.44A0.48,0.48,0,0,0,14.54,8H13.15a0.48,0.48,0,0,0-.47.47v4.12H8.56Z"/></svg>