<?xml version="1.0" encoding="UTF-8"?>
<svg width="106px" height="160px" viewBox="0 0 106 160" version="1.1" xmlns="http://www.w3.org/2000/svg" xmlns:xlink="http://www.w3.org/1999/xlink">
    <!-- Generator: Sketch 41.1 (35376) - http://www.bohemiancoding.com/sketch -->
    <title>Page 1</title>
    <desc>Created with Sketch.</desc>
    <defs>
        <polygon id="path-1" points="35.6284043 159.101203 106 159.101203 106 0.0965971589 0 0.0965971589 0 159.101203 35.6284043 159.101203 59.9993504 159.10126 59.9993504 28.5075831 35.6284043 28.5075831 35.6284043 159.101203"></polygon>
    </defs>
    <g id="Page-1" stroke="none" stroke-width="1" fill="none" fill-rule="evenodd">
        <g id="Large-Device-Desktops" transform="translate(-260.000000, -3357.000000)">
            <g id="Page-1" transform="translate(260.000000, 3357.000000)">
                <path d="M76.3030851,138.645334 C76.3030851,141.082992 75.316383,143.384277 74.5495745,144.793459 C74.2732979,145.304856 73.517766,145.213941 73.3711702,144.651404 C72.722766,142.185336 70.7775532,137.696409 65.2181915,137.696409 C60.5440426,137.696409 56.7607447,141.514838 56.7607447,146.219688 C56.7607447,147.282256 56.9524468,148.299368 57.3020213,149.231246 C57.5219149,149.810829 56.8960638,150.327908 56.3660638,150.009706 C52.5489362,147.691374 49.9947872,143.463828 49.9947872,138.645334 C49.9947872,127.09345 57.6967021,122.354507 56.3829787,104.932926 C54.4039362,78.7039558 49.8143617,62.8279286 45.9521277,44.889268 C44.3057447,37.2296815 37.9908511,15.6657863 33.8467021,0.568218582 L41.4414894,0.568218582 C50.7052128,33.6101291 59.6080851,71.6580454 66.25,108.529749 C68.8774468,123.098874 76.3030851,128.798106 76.3030851,138.645334" id="Fill-1" fill="#696A6A"></path>
                <path d="M46.431383,63.6916208 C45.2642553,63.5097909 44.0689362,63.2768213 42.8397872,62.992712 C38.7407447,62.0437869 34.2808511,60.515279 29.3191489,58.2424046 C18.5274468,53.298903 0,61.6517161 0,61.6517161 L0,28.9791477 L36.947766,28.9791477 C38.1881915,28.9791477 39.2651064,29.8428399 39.5470213,31.0588277 C40.1164894,33.6612688 40.7987234,36.7978354 41.5317021,40.2241934 C41.8530851,41.6901973 42.1744681,43.2016588 42.5014894,44.7528955 C42.5353191,44.9176789 42.5691489,45.0824623 42.608617,45.2472457 C42.8228723,46.2529926 43.0371277,47.2644216 43.251383,48.2872151 C43.347234,48.7190612 43.4374468,49.1565895 43.5276596,49.5884356 C43.6911702,50.3498485 43.8490426,51.1169436 44.0069149,51.8840387 C44.0914894,52.2874739 44.1760638,52.6909091 44.2606383,53.0886621 C44.3846809,53.6852916 44.5087234,54.2819211 44.632766,54.8728684 C45.05,56.87868 45.4559574,58.8674451 45.8506383,60.8050704 C45.9521277,61.2994206 46.0479787,61.7880886 46.1494681,62.2710744 C46.2453191,62.748378 46.3355319,63.2256816 46.431383,63.6916208" id="Fill-3" fill="#B3B5B7"></path>
                <path d="M106,28.9791477 L106,61.6517161 C106,61.6517161 89.722234,54.4751154 77.5265957,58.8106232 C73.0328723,60.4073174 68.7590426,61.924461 64.3442553,62.9415723 C63.2504255,63.2029529 62.1453191,63.4245581 61.0289362,63.6120702 C60.7470213,62.3278962 60.4594681,60.9925826 60.155,59.600447 C59.9069149,58.4526455 59.6475532,57.2877974 59.3769149,56.1059028 C59.3374468,55.9183906 59.2923404,55.7308785 59.247234,55.5433664 C59.0893617,54.8558219 58.9314894,54.1682774 58.7679787,53.4750507 C58.6044681,52.7875062 58.4409574,52.0942796 58.2718085,51.4010529 C57.9391489,50.0145996 57.5952128,48.6281462 57.2512766,47.2530573 C57.2456383,47.2246463 57.24,47.2019176 57.2343617,47.1791888 C56.9355319,45.991612 56.6367021,44.8153995 56.3378723,43.6505515 C56.2984043,43.4914503 56.2589362,43.332349 56.2138298,43.1732478 C56.1292553,42.8379989 56.0390426,42.5027499 55.9544681,42.1731831 C55.858617,41.7981589 55.762766,41.434499 55.6669149,41.0708391 C55.5034043,40.4514808 55.3398936,39.8378048 55.1820213,39.2298109 C55.0467021,38.7297785 54.9170213,38.2354284 54.7873404,37.7467604 C54.6407447,37.2069527 54.4997872,36.6728273 54.3588298,36.144384 C54.003617,34.8374813 53.6596809,33.576036 53.3326596,32.3884592 C52.8590426,30.672439 54.1389362,28.9791477 55.9037234,28.9791477 L106,28.9791477 Z" id="Fill-5" fill="#B3B5B7"></path>
                <g id="Group-9" transform="translate(0.000000, 0.471621)">
                    <mask id="mask-2" fill="white">
                        <use xlink:href="#path-1"></use>
                    </mask>
                    <g id="Clip-8"></g>
                    <path d="M59.946383,157.817086 C59.7546809,158.589863 59.0668085,159.10126 58.3112766,159.10126 C58.1703191,159.10126 58.0293617,159.084213 57.8940426,159.05012 C47.9142553,156.493136 43.307766,148.072137 42.4,141.634221 C41.5768085,135.849755 43.2626596,131.02558 45.2191489,125.439991 C46.1269149,122.831868 47.1643617,119.871449 48.0552128,116.49623 C50.237234,108.240014 48.2074468,94.6652726 46.583617,83.7554758 C46.3355319,82.0905953 46.0930851,80.4825367 45.8731915,78.9426644 C45.3826596,75.5163063 44.2324468,69.4306853 42.8397872,62.5211474 C40.3984043,50.4124094 37.2184043,35.7750987 35.6284043,28.5075831 L36.947766,28.5075831 C38.1881915,28.5075831 39.2651064,29.3712753 39.5470213,30.5872631 C40.1164894,33.1897042 40.7987234,36.3262708 41.5317021,39.7526288 C41.8474468,41.2129506 42.1744681,42.7300942 42.5014894,44.2813309 C42.5353191,44.4461143 42.5691489,44.6108977 42.608617,44.7756811 C42.817234,45.7757458 43.0371277,46.792857 43.251383,47.8156505 C43.347234,48.2474966 43.4374468,48.6850249 43.5276596,49.116871 C43.6855319,49.8782839 43.8490426,50.645379 44.0069149,51.4124741 C44.0914894,51.8159093 44.1760638,52.2193445 44.2606383,52.6170975 C44.3846809,53.213727 44.5087234,53.8103565 44.632766,54.4013038 C45.05,56.4071154 45.4559574,58.3958805 45.8506383,60.3335058 C45.9521277,60.827856 46.0479787,61.316524 46.1494681,61.7995098 C46.2453191,62.2768134 46.3355319,62.754117 46.431383,63.2200562 C47.7112766,69.6011509 48.7543617,75.1753752 49.2223404,78.4596786 C49.442234,79.9881866 49.6790426,81.5962452 49.9271277,83.2497612 C51.6017021,94.466396 53.682234,108.427527 51.3197872,117.376969 C50.3951064,120.877196 49.3407447,123.905801 48.4047872,126.570746 C46.527234,131.946094 45.0443617,136.196369 45.7491489,141.151235 C46.5103191,146.543629 50.3669149,153.606586 58.7228723,155.74877 C59.6306383,155.976058 60.1775532,156.907936 59.946383,157.817086" id="Fill-7" fill="#B3B5B7" mask="url(#mask-2)"></path>
                </g>
                <path d="M72.6551064,158.476162 C71.7924468,158.83414 70.8057447,158.413658 70.4505319,157.538602 C70.1009574,156.669227 70.5181915,155.674845 71.3808511,155.322549 C82.3135106,150.839305 82.1387234,139.253328 81.8229787,135.804241 C81.3662766,130.820964 79.026383,126.201347 76.3143617,120.85441 C73.4557447,115.194953 70.2080851,108.79113 68.7195745,100.694015 C66.5431915,88.8352931 64.8235106,80.9881945 62.4497872,70.1238552 C61.9987234,68.0782683 61.5307447,65.9247199 61.0289362,63.6120702 C60.7470213,62.3278962 60.4594681,60.9925826 60.155,59.600447 C59.9069149,58.4526455 59.6475532,57.2821152 59.3769149,56.1059028 C59.3374468,55.9183906 59.2923404,55.7308785 59.247234,55.5433664 C59.095,54.8558219 58.9314894,54.1682774 58.7679787,53.4750507 C58.6044681,52.7875062 58.4409574,52.0942796 58.2718085,51.4010529 C57.9391489,50.0145996 57.6008511,48.6281462 57.2512766,47.2530573 C57.2456383,47.2246463 57.24,47.2019176 57.2343617,47.1791888 C56.9355319,45.991612 56.6367021,44.8097174 56.3378723,43.6505515 C56.2984043,43.4914503 56.2589362,43.332349 56.2138298,43.1732478 C56.1292553,42.8379989 56.0446809,42.5027499 55.9544681,42.1731831 C55.858617,41.7981589 55.762766,41.434499 55.6669149,41.0708391 C55.5034043,40.4457987 55.3455319,39.8321226 55.1820213,39.2298109 C55.0467021,38.7297785 54.9170213,38.2354284 54.7873404,37.7467604 C54.6407447,37.2069527 54.4997872,36.6728273 54.3588298,36.144384 C54.003617,34.8374813 53.6596809,33.576036 53.3326596,32.3884592 C52.8590426,30.672439 54.1389362,28.9791477 55.9037234,28.9791477 C56.9862766,32.8600806 58.3225532,37.7581248 59.6588298,42.9686892 C61.0007447,48.1849357 62.3482979,53.7193847 63.4646809,58.8731273 C63.7691489,60.2879915 64.0623404,61.6403518 64.3442553,62.9415723 C64.8404255,65.2314932 65.3084043,67.3623129 65.7538298,69.3908532 C68.1388298,80.2892856 69.8585106,88.159113 72.0461702,100.074657 C73.4444681,107.677421 76.4384043,113.586895 79.3308511,119.303173 C82.0767021,124.729661 84.6759574,129.854993 85.1890426,135.491721 C86.1757447,146.265145 81.4903191,154.85661 72.6551064,158.476162" id="Fill-10" fill="#B3B5B7"></path>
                <path d="M69.2101064,86.2271698 C68.0824468,81.1132026 71.8882979,81.3973118 73.5797872,83.1019676 C75.2712766,84.8066233 77.6675532,83.9542955 79.9228723,83.5281315 C82.1781915,83.1019676 82.6715426,88.0738802 86.4069149,86.7953884 C89.3461596,85.7890733 89.9285957,82.1365642 95.9920213,81.8234758 C98.7406915,81.6814211 99.0930851,72.5188965 97.6835106,71.4534867 C96.572766,70.6142278 93.0319149,70.6011588 90.9175532,69.1806123 C88.8031915,67.7600659 85.4202128,68.4703391 83.587766,71.1693774 C81.7553191,73.8684156 77.1037234,67.9021205 71.4654255,69.7488309 C65.8271277,71.5955413 64.981383,66.5526014 64.981383,66.5526014 L69.2101064,86.2271698 Z" id="Fill-12" fill="#B3B5B7"></path>
                <path d="M66.2453202,143.888855 C66.2453202,145.337244 65.079884,146.511752 63.6426819,146.511752 C62.2054798,146.511752 61.0400436,145.337244 61.0400436,143.888855 C61.0400436,142.440466 62.2054798,141.265958 63.6426819,141.265958 C65.079884,141.265958 66.2453202,142.440466 66.2453202,143.888855" id="Fill-14" fill="#13B156"></path>
                <path d="M64.5103032,143.888855 C64.5103032,144.371841 64.1218245,144.763343 63.6425691,144.763343 C63.1638777,144.763343 62.7753989,144.371841 62.7753989,143.888855 C62.7753989,143.405869 63.1638777,143.014367 63.6425691,143.014367 C64.1218245,143.014367 64.5103032,143.405869 64.5103032,143.888855" id="Fill-16" fill="#FEFEFE"></path>
                <path d="M71.002634,145.806593 C71.002634,147.254982 69.8371979,148.42949 68.3999957,148.42949 C66.9627936,148.42949 65.7973574,147.254982 65.7973574,145.806593 C65.7973574,144.358204 66.9627936,143.183696 68.3999957,143.183696 C69.8371979,143.183696 71.002634,144.358204 71.002634,145.806593" id="Fill-18" fill="#13B156"></path>
                <path d="M69.267617,145.806593 C69.267617,146.289579 68.8791383,146.681081 68.399883,146.681081 C67.9211915,146.681081 67.5327128,146.289579 67.5327128,145.806593 C67.5327128,145.323607 67.9211915,144.932104 68.399883,144.932104 C68.8791383,144.932104 69.267617,145.323607 69.267617,145.806593" id="Fill-20" fill="#FEFEFE"></path>
                <path d="M64.7300277,148.78974 C64.7300277,150.238129 63.5645915,151.412637 62.1273894,151.412637 C60.6901872,151.412637 59.5247511,150.238129 59.5247511,148.78974 C59.5247511,147.341351 60.6901872,146.166843 62.1273894,146.166843 C63.5645915,146.166843 64.7300277,147.341351 64.7300277,148.78974" id="Fill-22" fill="#13B156"></path>
                <path d="M62.9950106,148.78974 C62.9950106,149.272726 62.6065319,149.664229 62.1272766,149.664229 C61.6485851,149.664229 61.2601064,149.272726 61.2601064,148.78974 C61.2601064,148.306755 61.6485851,147.915252 62.1272766,147.915252 C62.6065319,147.915252 62.9950106,148.306755 62.9950106,148.78974" id="Fill-24" fill="#FEFEFE"></path>
                <path d="M67.6196553,152.802784 C67.6196553,154.251173 66.4542191,155.425681 65.017017,155.425681 C63.5798149,155.425681 62.4143787,154.251173 62.4143787,152.802784 C62.4143787,151.354395 63.5798149,150.179887 65.017017,150.179887 C66.4542191,150.179887 67.6196553,151.354395 67.6196553,152.802784" id="Fill-26" fill="#13B156"></path>
                <path d="M65.8846383,152.802784 C65.8846383,153.28577 65.4961596,153.677272 65.0169043,153.677272 C64.5382128,153.677272 64.149734,153.28577 64.149734,152.802784 C64.149734,152.319798 64.5382128,151.928296 65.0169043,151.928296 C65.4961596,151.928296 65.8846383,152.319798 65.8846383,152.802784" id="Fill-28" fill="#FEFEFE"></path>
                <path d="M54.4953115,157.743141 C54.4953115,157.743141 43.4049176,153.017738 43.4049176,137.704985 C43.4049176,122.392232 53.7198123,120.345673 49.8593181,94.3955361 C45.9988239,68.4453991 43.4049176,55.8465595 43.4049176,55.8465595" id="Path-2" stroke="#B3B5B7" stroke-width="3" stroke-linecap="round"></path>
            </g>
        </g>
    </g>
</svg>