<?xml version="1.0" encoding="UTF-8"?>
<svg width="106px" height="150px" viewBox="0 0 106 150" version="1.1" xmlns="http://www.w3.org/2000/svg" xmlns:xlink="http://www.w3.org/1999/xlink">
    <!-- Generator: Sketch 41.1 (35376) - http://www.bohemiancoding.com/sketch -->
    <title>Page 1</title>
    <desc>Created with Sketch.</desc>
    <defs></defs>
    <g id="Page-1" stroke="none" stroke-width="1" fill="none" fill-rule="evenodd">
        <g id="Large-Device-Desktops" transform="translate(-455.000000, -3358.000000)">
            <g id="Page-1" transform="translate(455.000000, 3358.000000)">
                <path d="M105.590582,28.137051 L105.590582,60.4944654 C105.590582,60.4944654 89.3989418,53.387089 77.2678307,57.6807772 C73.0278307,59.1776593 68.9897354,60.6070129 64.8338624,61.6143133 C64.6095238,61.6649597 64.3851852,61.7212335 64.1552381,61.7718798 C63.2915344,61.9800928 62.4222222,62.1601688 61.5416931,62.3177354 C61.3173545,62.357127 61.0874074,62.3965186 60.8574603,62.4359103 C60.577037,61.1641232 60.2910053,59.8416897 59.9881481,58.4629825 C59.7413757,57.3262525 59.4833862,56.1726403 59.2141799,55.002146 C59.1749206,54.8164426 59.1300529,54.6307392 59.0851852,54.4450357 C58.9281481,53.7641232 58.7711111,53.0832106 58.6084656,52.3966707 C58.4458201,51.7157582 58.2831746,51.0292183 58.1149206,50.3426783 C57.7840212,48.9695985 57.4419048,47.5965186 57.0997884,46.2346935 C57.0941799,46.2065567 57.0885714,46.1840471 57.082963,46.1615376 C56.7857143,44.985416 56.4884656,43.820549 56.1912169,42.6669369 C56.1519577,42.5093703 56.1126984,42.3518038 56.0678307,42.1942373 C55.9837037,41.8622221 55.8939683,41.5302068 55.8098413,41.203819 C55.7144974,40.8324122 55.6191534,40.4722601 55.5238095,40.112108 C55.361164,39.498724 55.1985185,38.8909673 55.0414815,38.288838 C54.9068783,37.7936289 54.7778836,37.3040471 54.6488889,36.8200928 C54.5030688,36.285492 54.3628571,35.7565186 54.2226455,35.2331726 C54.06,34.6428608 53.6791852,33.0880167 53.2821058,31.4588913 C52.8693228,29.7684274 54.1452487,28.137051 55.8793862,28.137051 L105.590582,28.137051 Z" id="Fill-1" fill="#B3B5B7"></path>
                <path d="M43.0898974,61.9125643 C43.073072,61.9125643 43.061855,61.9069369 43.0506381,61.9069369 C43.0282042,61.9013095 43.0057704,61.9013095 42.988945,61.8956821 C38.4741302,60.8377354 33.0227016,58.8794084 29.1640772,57.1180395 C18.4294741,52.2222221 5.60846561e-05,60.4944654 5.60846561e-05,60.4944654 L5.60846561e-05,28.137051 L37.4085217,28.137051 C38.6704265,28.137051 39.7640772,29.020549 40.0220667,30.2585719 C40.0220667,30.2641992 40.0276751,30.275454 40.0276751,30.2810814 C40.123019,30.708762 40.2127545,31.14207 40.3024899,31.5697506 C40.459527,32.323819 40.6221725,33.0835148 40.7792095,33.8432106 C40.8633365,34.2427544 40.9474635,34.6422981 41.0315905,35.0362144 C41.1263735,35.4909065 45.1650296,52.2880624 45.9597492,62.2766555 C46.1291249,64.4066175 43.3450825,61.9722144 43.0898974,61.9125643" id="Fill-3" fill="#B3B5B7"></path>
                <path d="M68.8607407,85.2549217 C67.2129735,80.788473 73.125418,79.3816289 74.5628677,81.7378114 C75.804582,83.7743589 77.4069206,82.5819179 79.6503069,82.1598646 C81.8936931,81.7378114 82.3844339,86.6617658 86.1000423,85.3956061 C89.0237354,84.3989977 89.6030899,80.7817202 95.6344339,80.4716517 C98.3685608,80.3309673 98.7190899,71.2568228 97.3169735,70.2016897 C96.2121058,69.3705262 92.6899894,69.3575833 90.5868148,67.9507392 C88.4836402,66.5438951 85.1185608,67.2473171 83.2958095,69.9203209 C81.4730582,72.5933247 76.8460741,66.6845795 71.2376085,68.5134768 C65.6291429,70.3423741 64.787873,65.3480776 64.787873,65.3480776 L64.5842857,71.3508 L65.5422116,78.830146 L68.8607407,85.2549217 Z" id="Fill-5" fill="#B3B5B7"></path>
                <path d="M65.9515175,131.809081 C65.9515175,133.2435 64.7922476,134.406678 63.3626497,134.406678 C61.9330519,134.406678 60.773782,133.2435 60.773782,131.809081 C60.773782,130.374663 61.9330519,129.211484 63.3626497,129.211484 C64.7922476,129.211484 65.9515175,130.374663 65.9515175,131.809081" id="Fill-7" fill="#13B156"></path>
                <path d="M64.2256243,131.809081 C64.2256243,132.287408 63.8392011,132.675135 63.3624815,132.675135 C62.8863228,132.675135 62.4998995,132.287408 62.4998995,131.809081 C62.4998995,131.330754 62.8863228,130.943028 63.3624815,130.943028 C63.8392011,130.943028 64.2256243,131.330754 64.2256243,131.809081" id="Fill-9" fill="#FEFEFE"></path>
                <path d="M70.6836603,133.708321 C70.6836603,135.142739 69.5243905,136.305918 68.0947926,136.305918 C66.6651947,136.305918 65.5059249,135.142739 65.5059249,133.708321 C65.5059249,132.273903 66.6651947,131.110724 68.0947926,131.110724 C69.5243905,131.110724 70.6836603,132.273903 70.6836603,133.708321" id="Fill-11" fill="#13B156"></path>
                <path d="M68.9577672,133.708321 C68.9577672,134.186648 68.5713439,134.574374 68.0946243,134.574374 C67.6184656,134.574374 67.2320423,134.186648 67.2320423,133.708321 C67.2320423,133.229994 67.6184656,132.842268 68.0946243,132.842268 C68.5713439,132.842268 68.9577672,133.229994 68.9577672,133.708321" id="Fill-13" fill="#FEFEFE"></path>
                <path d="M64.4442423,136.662694 C64.4442423,138.097112 63.2849725,139.26029 61.8553746,139.26029 C60.4257767,139.26029 59.2665069,138.097112 59.2665069,136.662694 C59.2665069,135.228275 60.4257767,134.065097 61.8553746,134.065097 C63.2849725,134.065097 64.4442423,135.228275 64.4442423,136.662694" id="Fill-15" fill="#13B156"></path>
                <path d="M62.7183492,136.662694 C62.7183492,137.141021 62.3319259,137.528747 61.8552063,137.528747 C61.3790476,137.528747 60.9926243,137.141021 60.9926243,136.662694 C60.9926243,136.184367 61.3790476,135.79664 61.8552063,135.79664 C62.3319259,135.79664 62.7183492,136.184367 62.7183492,136.662694" id="Fill-17" fill="#FEFEFE"></path>
                <path d="M67.318581,140.637028 C67.318581,142.071446 66.1593111,143.234625 64.7297132,143.234625 C63.3001153,143.234625 62.1408455,142.071446 62.1408455,140.637028 C62.1408455,139.20261 63.3001153,138.039431 64.7297132,138.039431 C66.1593111,138.039431 67.318581,139.20261 67.318581,140.637028" id="Fill-19" fill="#13B156"></path>
                <path d="M65.5926878,140.637028 C65.5926878,141.115355 65.2062646,141.503081 64.729545,141.503081 C64.2533862,141.503081 63.866963,141.115355 63.866963,140.637028 C63.866963,140.158701 64.2533862,139.770975 64.729545,139.770975 C65.2062646,139.770975 65.5926878,140.158701 65.5926878,140.637028" id="Fill-21" fill="#FEFEFE"></path>
                <path d="M58.0177259,127.460245 C56.1624455,130.348777 54.5242127,136.429157 56.346964,141.915849 C58.1697153,147.402541 66.8213344,151.141933 71.9452286,144.061005 C77.2732709,136.698709 73.1084243,128.043804 69.6087418,125.209294 C65.7293661,122.06753 60.623419,123.404032 58.0177259,127.460245 L58.0177259,127.460245 Z" id="Stroke-23" stroke="#B3B5B7" stroke-width="3" stroke-linecap="round"></path>
                <path d="M65.5966138,97.3594084 C65.5966138,102.73918 60.9640212,107.027241 55.4901587,106.430739 C51.3230688,105.974922 47.9467725,102.615378 47.4700529,98.4398646 C47.2625397,96.6447316 47.5822222,94.9283817 48.2888889,93.4427544 C49.8929101,90.0607011 50.4649735,86.2791042 50.2574603,82.5368989 C50.0219048,78.3219939 49.8143915,73.7356821 49.4610582,69.0762144 C47.4924868,43.1002449 42.9271958,27.3773551 39.0853968,9.61172776 C38.5245503,7.01750722 37.7674074,3.69735513 36.9037037,0.000168821292 L43.8582011,0.000168821292 C49.494709,22.7797886 54.710582,47.42207 59.275873,72.6383437 C59.8759788,75.9810053 60.4031746,79.3799407 60.7677249,82.6269369 C61.1603175,86.1046555 62.2651852,89.4867087 64.1552381,92.4298266 C65.0638095,93.8535529 65.5966138,95.5473932 65.5966138,97.3594084" id="Fill-25" fill="#696A6A"></path>
                <path d="M61.2893122,56.2739331 C61.2893122,56.2739331 63.5955132,66.9940852 64.7480529,75.0316669 C66.7110159,88.7253247 70.4613968,89.0415833 71.1977884,96.3222829 C71.8517354,102.793766 68.5803175,111.070511 59.4200106,112.477355 C47.6321376,114.287682 41.990582,105.115621 41.8464444,99.0419939 C41.6596825,91.1636669 43.9445714,91.6543741 45.2115238,81.972473 C46.4268783,72.6873019 42.7813757,51.5846403 42.7813757,51.5846403" id="Stroke-27" stroke="#B3B5B7" stroke-width="3" stroke-linecap="round"></path>
                <polygon id="Fill-29" fill="#13B156" points="60.8422614 120.329627 62.8517746 119.88 61.5421979 113.990951 59.5326847 114.441141"></polygon>
                <polygon id="Fill-31" fill="#13B156" points="60.0408677 111.982934 64.2303915 116.557991 58.186709 117.911375"></polygon>
            </g>
        </g>
    </g>
</svg>