<?xml version="1.0" encoding="UTF-8"?>
<svg width="106px" height="188px" viewBox="0 0 106 188" version="1.1" xmlns="http://www.w3.org/2000/svg" xmlns:xlink="http://www.w3.org/1999/xlink">
    <!-- Generator: Sketch 41.1 (35376) - http://www.bohemiancoding.com/sketch -->
    <title>Page 1</title>
    <desc>Created with Sketch.</desc>
    <defs>
        <polygon id="path-1" points="45.5922072 48.1605493 45.5922072 0.273862687 0.244616796 0.273862687 0.244616796 48.1605493 45.5922072 48.1605493"></polygon>
        <polygon id="path-3" points="23.3163109 0.0853014925 0.478324701 0.0853014925 0.478324701 72.4805479 23.3163109 72.4805479 23.3163109 0.0853014925"></polygon>
    </defs>
    <g id="Page-1" stroke="none" stroke-width="1" fill="none" fill-rule="evenodd">
        <g id="Large-Device-Desktops" transform="translate(-844.000000, -3337.000000)">
            <g id="Page-1" transform="translate(844.000000, 3337.000000)">
                <path d="M74.4263117,163.955754 C74.1482418,164.463073 73.3979034,164.373282 73.2487363,163.814333 C72.6014076,161.383241 70.6594214,156.947002 65.109844,156.947002 C60.4434482,156.947002 56.6664257,160.718226 56.6664257,165.364912 C56.6664257,166.415467 56.8583727,167.417199 57.2090561,168.341485 C57.4263334,168.91222 56.7998317,169.420661 56.275214,169.105832 C52.4610405,166.81616 49.9116911,162.645366 49.9116911,157.884196 C49.9116911,146.475121 57.6008307,141.794763 56.2892864,124.588554 C54.3135265,98.6838376 49.7315648,83.0040764 45.8757371,65.2871809 C39.4024498,35.5438973 38.9859078,20.5712406 39.2617262,21.3737481 C50.0974463,52.9409122 59.1037591,89.5139272 66.139941,128.140912 C68.7630296,142.529927 76.1763509,148.158703 76.1763509,157.884196 C76.1763509,160.293963 75.1895967,162.562309 74.4263117,163.955754" id="Fill-1" fill="#696A6A"></path>
                <path d="M46.3543664,83.8569791 C45.1891747,83.677397 43.9958382,83.4473075 42.7687281,83.1667104 C38.6764847,82.2295164 34.2239888,80.7199045 29.2705167,78.4751284 C18.496715,73.5927403 0,81.8422925 0,81.8422925 L0,49.5736358 L36.88648,49.5736358 C38.124848,49.5736358 39.1999766,50.4266507 39.4814239,51.627606 C40.0499474,54.1978746 40.7310498,57.2956657 41.4628127,60.6796657 C41.7836626,62.1275463 42.1045125,63.6203224 42.4309913,65.1523821 C42.464765,65.3151284 42.4985387,65.4778746 42.5379413,65.6406209 C42.7518412,66.6339343 42.9657412,67.6328597 43.1796411,68.643009 C43.2753332,69.0695164 43.3653963,69.5016358 43.4554594,69.9281433 C43.6186989,70.6801433 43.7763093,71.4377552 43.9339198,72.1953672 C44.018354,72.5938149 44.1027882,72.9922627 44.1872224,73.3850985 C44.3110592,73.9743522 44.434896,74.563606 44.5587328,75.1472478 C44.9752747,77.1282627 45.3805588,79.0924418 45.774585,81.0061134 C45.875906,81.4943522 45.9715981,81.9769791 46.0729191,82.453994 C46.1686112,82.925397 46.2586743,83.3968 46.3543664,83.8569791" id="Fill-3" fill="#B3B5B7"></path>
                <g id="Group-7" transform="translate(60.229717, 49.299773)">
                    <mask id="mask-2" fill="white">
                        <use xlink:href="#path-1"></use>
                    </mask>
                    <g id="Clip-6"></g>
                    <path d="M45.592376,0.273862687 L45.592376,32.5425194 C45.592376,32.5425194 29.3416103,25.4546388 17.1662011,29.7365493 C12.9501209,31.2181015 8.93105383,32.6323104 4.80503677,33.6312358 C4.58550789,39.1926687 6.67384668,45.8989373 6.69636246,45.9718925 C6.97780974,46.8585791 6.48246253,47.806997 5.59308914,48.0819821 C5.42422077,48.1381015 5.25535241,48.1605493 5.08648404,48.1605493 C4.36597902,48.1605493 3.70176344,47.7059821 3.47660562,46.9820418 C3.35276882,46.6004299 0.527038169,37.5315343 1.69785884,30.9150567 C2.06936924,28.8386388 3.05443471,26.7285493 4.55173422,24.8204896 C7.89532786,20.5554149 6.30233628,16.4755343 3.28522148,10.2687284 C2.05248241,7.73381493 1.07304588,5.05860299 0.335091127,2.74648358 C-0.0555576923,1.52139701 0.868152268,0.273862687 2.15774369,0.273862687 L45.592376,0.273862687 Z" id="Fill-5" fill="#B3B5B7" mask="url(#mask-2)"></path>
                </g>
                <path d="M59.8469488,177.284561 C59.6555646,178.047785 58.9688333,178.55286 58.2145546,178.55286 C58.073831,178.55286 57.9331073,178.536024 57.7980126,178.502352 C47.8347791,175.976979 43.2359306,167.660084 42.3296703,161.301755 C41.5078443,155.5888 43.190899,150.824263 45.1441431,145.307725 C46.0504033,142.731845 47.0861293,139.808024 47.9755027,136.474531 C50.1539046,128.320382 48.1274842,114.913457 46.5063479,104.138531 C46.2586743,102.494233 46.0166296,100.906054 45.7971008,99.3852179 C45.3073825,96.0012179 44.1590776,89.9908299 42.7687281,83.1667104 C40.3313947,71.2076657 37.1566694,56.7513075 35.5693068,49.5736358 L36.88648,49.5736358 C38.124848,49.5736358 39.1999766,50.4266507 39.4814239,51.627606 C40.0499474,54.1978746 40.7310498,57.2956657 41.4628127,60.6796657 C41.7780337,62.1219343 42.1045125,63.6203224 42.4309913,65.1523821 C42.464765,65.3151284 42.4985387,65.4778746 42.5379413,65.6406209 C42.7462123,66.6283224 42.9657412,67.6328597 43.1796411,68.643009 C43.2753332,69.0695164 43.3653963,69.5016358 43.4554594,69.9281433 C43.6130699,70.6801433 43.7763093,71.4377552 43.9339198,72.1953672 C44.018354,72.5938149 44.1027882,72.9922627 44.1872224,73.3850985 C44.3110592,73.9743522 44.434896,74.563606 44.5587328,75.1472478 C44.9752747,77.1282627 45.3805588,79.0924418 45.774585,81.0061134 C45.875906,81.4943522 45.9715981,81.9769791 46.0729191,82.453994 C46.1686112,82.925397 46.2586743,83.3968 46.3543664,83.8569791 C47.632137,90.1591881 48.6734919,95.6645015 49.1406944,98.908203 C49.3602233,100.417815 49.596639,102.005994 49.8443126,103.639069 C51.5161094,114.717039 53.5931903,128.505576 51.2346621,137.344382 C50.3115151,140.801337 49.2589023,143.792501 48.3244973,146.424501 C46.4500585,151.733397 44.9696458,155.931128 45.673264,160.82474 C46.4331716,166.150472 50.2833704,173.126113 58.6254676,175.241815 C59.5317278,175.466293 60.0777356,176.386651 59.8469488,177.284561" id="Fill-8" fill="#B3B5B7"></path>
                <path d="M85.0477379,154.769457 C84.5355039,149.202412 81.94056,144.140442 79.1992635,138.781039 C76.3116144,133.135427 73.3226444,127.299009 71.9266659,119.790233 C69.742635,108.021994 68.0258066,100.249457 65.6447627,89.4857552 C65.200076,87.4822925 64.7328735,85.3778149 64.2375263,83.116203 C63.9887269,81.9809075 63.7297954,80.7984716 63.4641092,79.5773134 C63.0267401,84.2514985 63.0126678,88.8678806 63.0751491,93.5117612 C65.082431,102.61489 66.662476,109.926687 68.605588,120.401934 C70.0916296,128.398949 73.3339023,134.723606 76.1877776,140.313099 C78.8953004,145.593934 81.2313128,150.156442 81.6872574,155.078113 C82.0024784,158.484561 82.1769757,169.927307 71.2624503,174.355128 C70.4012217,174.703069 69.9846797,175.685158 70.3336743,176.543785 C70.6882979,177.408024 71.6733633,177.823307 72.534592,177.469755 C81.3551496,173.894949 86.0328034,165.409696 85.0477379,154.769457" id="Fill-10" fill="#B3B5B7"></path>
                <path d="M69.0953063,106.113934 C67.9695172,101.063188 71.7690554,101.343785 73.4577391,103.027367 C75.1464227,104.710949 77.5387246,103.869158 79.7903028,103.448263 C82.041881,103.027367 82.5344137,107.937815 86.2635901,106.675128 C89.1979594,105.681254 89.7794295,102.073899 95.8327975,101.764681 C98.5769085,101.624382 98.9287176,92.5751284 97.5214812,91.5228896 C96.4125789,90.694006 92.8776011,90.6810985 90.7667466,89.2781134 C88.655892,87.8751284 85.2785247,88.5766209 83.4491174,91.2422925 C81.6197101,93.9079642 76.97583,88.0154269 71.3468845,89.8393075 C65.717939,91.6631881 64.8735971,86.682591 64.8735971,86.682591 L69.0953063,106.113934 Z" id="Fill-12" fill="#B3B5B7"></path>
                <path d="M66.1354379,163.062782 C66.1354379,164.493266 64.9719348,165.653254 63.5371166,165.653254 C62.1022984,165.653254 60.9387954,164.493266 60.9387954,163.062782 C60.9387954,161.632299 62.1022984,160.47231 63.5371166,160.47231 C64.9719348,160.47231 66.1354379,161.632299 66.1354379,163.062782" id="Fill-14" fill="#0B7F40"></path>
                <path d="M64.4032987,163.062782 C64.4032987,163.539797 64.0154644,163.92646 63.537004,163.92646 C63.0591066,163.92646 62.6712722,163.539797 62.6712722,163.062782 C62.6712722,162.585767 63.0591066,162.199104 63.537004,162.199104 C64.0154644,162.199104 64.4032987,162.585767 64.4032987,163.062782" id="Fill-16" fill="#FEFEFE"></path>
                <path d="M70.8848606,164.956812 C70.8848606,166.387296 69.7213576,167.547284 68.2865394,167.547284 C66.8517212,167.547284 65.6882181,166.387296 65.6882181,164.956812 C65.6882181,163.526328 66.8517212,162.36634 68.2865394,162.36634 C69.7213576,162.36634 70.8848606,163.526328 70.8848606,164.956812" id="Fill-18" fill="#0B7F40"></path>
                <path d="M69.1527215,164.956812 C69.1527215,165.433827 68.7648872,165.82049 68.2864268,165.82049 C67.8085293,165.82049 67.420695,165.433827 67.420695,164.956812 C67.420695,164.479797 67.8085293,164.093134 68.2864268,164.093134 C68.7648872,164.093134 69.1527215,164.479797 69.1527215,164.956812" id="Fill-20" fill="#FEFEFE"></path>
                <path d="M64.6226588,167.903081 C64.6226588,169.333564 63.4591557,170.493552 62.0243375,170.493552 C60.5895193,170.493552 59.4260162,169.333564 59.4260162,167.903081 C59.4260162,166.472597 60.5895193,165.312609 62.0243375,165.312609 C63.4591557,165.312609 64.6226588,166.472597 64.6226588,167.903081" id="Fill-22" fill="#0B7F40"></path>
                <path d="M62.8905196,167.903081 C62.8905196,168.380096 62.5026853,168.766758 62.0242249,168.766758 C61.5463274,168.766758 61.1584931,168.380096 61.1584931,167.903081 C61.1584931,167.426066 61.5463274,167.039403 62.0242249,167.039403 C62.5026853,167.039403 62.8905196,167.426066 62.8905196,167.903081" id="Fill-24" fill="#FEFEFE"></path>
                <path d="M67.5074933,171.866513 C67.5074933,173.296997 66.3439903,174.456985 64.9091721,174.456985 C63.4743539,174.456985 62.3108508,173.296997 62.3108508,171.866513 C62.3108508,170.43603 63.4743539,169.276042 64.9091721,169.276042 C66.3439903,169.276042 67.5074933,170.43603 67.5074933,171.866513" id="Fill-26" fill="#0B7F40"></path>
                <path d="M65.7753542,171.866513 C65.7753542,172.343528 65.3875199,172.730191 64.9090595,172.730191 C64.431162,172.730191 64.0433277,172.343528 64.0433277,171.866513 C64.0433277,171.389499 64.431162,171.002836 64.9090595,171.002836 C65.3875199,171.002836 65.7753542,171.389499 65.7753542,171.866513" id="Fill-28" fill="#FEFEFE"></path>
                <polygon id="Fill-30" fill="#0B7F40" points="66.1662845 179.602293 64.0998986 179.631475 64.1854586 185.648036 66.2518445 185.618854"></polygon>
                <polygon id="Fill-32" fill="#0B7F40" points="65.2509617 187.914699 62.067793 182.592896 68.2821488 182.505349"></polygon>
                <polygon id="Fill-34" fill="#0B7F40" points="59.1494099 42.7670257 61.118415 42.1418555 59.2861932 36.4086973 57.3171881 37.0338675"></polygon>
                <polygon id="Fill-36" fill="#0B7F40" points="57.6070788 34.5472728 62.201987 38.7197504 56.2803363 40.6003116"></polygon>
                <g id="Group-40" transform="translate(40.528408, 0.475893)">
                    <mask id="mask-4" fill="white">
                        <use xlink:href="#path-3"></use>
                    </mask>
                    <g id="Clip-39"></g>
                    <path d="M23.2106191,68.6101791 C23.6845763,70.3016179 22.5092525,72.0233612 20.7896097,72.4049731 C19.0699668,72.7865851 17.4555852,71.6832776 16.9833167,69.9912776 C16.2037077,67.1959701 17.0097727,64.1049134 15.3593659,57.6556716 C10.3102018,37.9280179 -0.712399345,0.374035821 0.583383914,0.0867044776 C1.85214823,-0.194453731 11.8863065,37.0115881 17.9863948,56.8610209 C20.1541017,63.9152299 22.3955478,65.6998269 23.2106191,68.6101791" id="Fill-38" fill="#696A6A" mask="url(#mask-4)"></path>
                </g>
            </g>
        </g>
    </g>
</svg>