<?xml version="1.0" encoding="UTF-8"?>
<svg width="137px" height="50px" viewBox="0 0 137 50" version="1.1" xmlns="http://www.w3.org/2000/svg" xmlns:xlink="http://www.w3.org/1999/xlink">
    <!-- Generator: Sketch 41.1 (35376) - http://www.bohemiancoding.com/sketch -->
    <title>Page 1</title>
    <desc>Created with Sketch.</desc>
    <defs></defs>
    <g id="Page-1" stroke="none" stroke-width="1" fill="none" fill-rule="evenodd">
        <g id="Large-Device-Desktops" transform="translate(-275.000000, -2579.000000)">
            <g id="Page-1" transform="translate(277.000000, 2581.000000)">
                <path d="M32.8589213,30.920771 C32.8589213,33.0858408 31.099329,34.841542 28.9294606,34.841542 C26.7595923,34.841542 25,33.0858408 25,30.920771 C25,28.7557011 26.7595923,27 28.9294606,27 C31.099329,27 32.8589213,28.7557011 32.8589213,30.920771" id="Fill-15" fill="#FFFFFF"></path>
                <path d="M106.858921,30.920771 C106.858921,33.0858408 105.099329,34.841542 102.929461,34.841542 C100.759592,34.841542 99,33.0858408 99,30.920771 C99,28.7557011 100.759592,27 102.929461,27 C105.099329,27 106.858921,28.7557011 106.858921,30.920771" id="Fill-15-Copy" fill="#FFFFFF"></path>
                <path d="M20.8589213,43.920771 C20.8589213,46.0858408 19.099329,47.841542 16.9294606,47.841542 C14.7595923,47.841542 13,46.0858408 13,43.920771 C13,41.7557011 14.7595923,40 16.9294606,40 C19.099329,40 20.8589213,41.7557011 20.8589213,43.920771" id="Fill-17" fill="#FFFFFF"></path>
                <path d="M94.8589213,43.920771 C94.8589213,46.0858408 93.099329,47.841542 90.9294606,47.841542 C88.7595923,47.841542 87,46.0858408 87,43.920771 C87,41.7557011 88.7595923,40 90.9294606,40 C93.099329,40 94.8589213,41.7557011 94.8589213,43.920771" id="Fill-17-Copy" fill="#FFFFFF"></path>
                <path d="M43.8589213,43.920771 C43.8589213,46.0858408 42.099329,47.841542 39.9294606,47.841542 C37.7595923,47.841542 36,46.0858408 36,43.920771 C36,41.7557011 37.7595923,40 39.9294606,40 C42.099329,40 43.8589213,41.7557011 43.8589213,43.920771" id="Fill-19" fill="#FFFFFF"></path>
                <path d="M117.858921,43.920771 C117.858921,46.0858408 116.099329,47.841542 113.929461,47.841542 C111.759592,47.841542 110,46.0858408 110,43.920771 C110,41.7557011 111.759592,40 113.929461,40 C116.099329,40 117.858921,41.7557011 117.858921,43.920771" id="Fill-19-Copy" fill="#FFFFFF"></path>
                <path d="M65.9928415,39.6044933 C62.3807174,39.6044933 59.4525383,36.6834273 59.4525383,33.0792912 C59.4525383,29.475155 62.3807174,26.5540891 65.9928415,26.5540891 C69.6043263,26.5540891 72.5325055,29.475155 72.5325055,33.0792912 C72.5325055,36.6834273 69.6043263,39.6044933 65.9928415,39.6044933 Z" id="Fill-21" fill="#FFFFFF"></path>
                <path d="M73.3093229,2.050375 C106.212969,-3.99741912 130.818661,5.25950735 130.818661,5.25950735" id="Stroke-1" stroke="#FFFFFF" stroke-width="4" stroke-linecap="round"></path>
                <path d="M2.86954427,0.766791176 C2.86954427,0.766791176 21.5290286,9.88202647 57.8103203,3.96140882" id="Stroke-3" stroke="#FFFFFF" stroke-width="4" stroke-linecap="round"></path>
                <path d="M73.8288542,19.5025809 C78.4713854,25.2932574 88.5101146,25.6685662 92.7051562,19.0705956 C97.8138802,11.0356691 107.425208,11.1220662 112.620521,19.2433897 C116.721354,25.6575074 126.821042,27.8830956 132.709062,18.0338309" id="Stroke-5" stroke="#FFFFFF" stroke-width="4" stroke-linecap="round"></path>
                <path d="M0,19.2433897 C0,19.2433897 10.9378646,29.4036838 19.1048958,20.6257426 C25.8588021,13.3683897 33.8249479,15.7875074 38.154375,21.144125 C43.7653125,28.0835368 53.826901,27.4511103 57.809974,20.1937574" id="Stroke-7" stroke="#FFFFFF" stroke-width="4" stroke-linecap="round"></path>
                <path d="M65.9925911,33.0792912 L65.5305547,0.811717647" id="Stroke-23" stroke="#FFFFFF" stroke-width="4" stroke-linecap="round"></path>
                <path d="M73.3093229,2.050375 L73.3093229,21.9458897 C76.9044792,24.2682426 79.2804687,28.3047132 79.2804687,32.894125 C79.2804687,40.0961838 73.4270833,45.936625 66.2090625,45.936625 C58.9910417,45.936625 53.1376562,40.0961838 53.1376562,32.894125 C53.1376562,28.7263309 55.0980208,25.0147132 58.1528646,22.6301544 L58.1528646,4.03750735" id="Stroke-25" stroke="#FFFFFF" stroke-width="4" stroke-linecap="round" stroke-linejoin="round"></path>
            </g>
        </g>
    </g>
</svg>