<?xml version="1.0" encoding="UTF-8"?>
<svg width="90px" height="93px" viewBox="0 0 90 93" version="1.1" xmlns="http://www.w3.org/2000/svg" xmlns:xlink="http://www.w3.org/1999/xlink">
    <!-- Generator: Sketch 41.1 (35376) - http://www.bohemiancoding.com/sketch -->
    <title>Page 1</title>
    <desc>Created with Sketch.</desc>
    <defs></defs>
    <g id="Page-1" stroke="none" stroke-width="1" fill="none" fill-rule="evenodd">
        <g id="Large-Device-Desktops" transform="translate(-567.000000, -2551.000000)">
            <g id="Page-1" transform="translate(569.000000, 2553.000000)">
                <path d="M36.4902572,33.247818 C33.7400801,18.4222355 34.683023,11.8544767 35.5787614,0.85888503" id="Stroke-1" stroke="#FFFFFF" stroke-width="4" stroke-linecap="round"></path>
                <path d="M39,88.6798771 C40.2902998,77.1473864 41.1331502,70.9547729 39,58" id="Stroke-3" stroke="#FFFFFF" stroke-width="4" stroke-linecap="round"></path>
                <path d="M70.0925254,76.1285176 C67.8326119,76.1285176 66,74.3085634 66,72.0642588 C66,69.8199543 67.8326119,68 70.0925254,68 C72.352439,68 74.1850509,69.8199543 74.1850509,72.0642588 C74.1850509,74.3085634 72.352439,76.1285176 70.0925254,76.1285176" id="Fill-5" fill="#FFFFFF"></path>
                <path d="M57.0925254,63.1285176 C54.8326119,63.1285176 53,61.3085634 53,59.0642588 C53,56.8199543 54.8326119,55 57.0925254,55 C59.352439,55 61.1850509,56.8199543 61.1850509,59.0642588 C61.1850509,61.3085634 59.352439,63.1285176 57.0925254,63.1285176" id="Fill-7" fill="#FFFFFF"></path>
                <path d="M57.0925254,88.1285176 C54.8326119,88.1285176 53,86.3085634 53,84.0642588 C53,81.8199543 54.8326119,80 57.0925254,80 C59.352439,80 61.1850509,81.8199543 61.1850509,84.0642588 C61.1850509,86.3085634 59.352439,88.1285176 57.0925254,88.1285176" id="Fill-9" fill="#FFFFFF"></path>
                <path d="M70.0925254,22.1285176 C67.8326119,22.1285176 66,20.3085634 66,18.0642588 C66,15.8199543 67.8326119,14 70.0925254,14 C72.352439,14 74.1850509,15.8199543 74.1850509,18.0642588 C74.1850509,20.3085634 72.352439,22.1285176 70.0925254,22.1285176" id="Fill-11" fill="#FFFFFF"></path>
                <path d="M57.0925254,9.12851765 C54.8326119,9.12851765 53,7.30856339 53,5.06425882 C53,2.81995426 54.8326119,1 57.0925254,1 C59.352439,1 61.1850509,2.81995426 61.1850509,5.06425882 C61.1850509,7.30856339 59.352439,9.12851765 57.0925254,9.12851765" id="Fill-13" fill="#FFFFFF"></path>
                <path d="M57.0925254,34.1285176 C54.8326119,34.1285176 53,32.3085634 53,30.0642588 C53,27.8199543 54.8326119,26 57.0925254,26 C59.352439,26 61.1850509,27.8199543 61.1850509,30.0642588 C61.1850509,32.3085634 59.352439,34.1285176 57.0925254,34.1285176" id="Fill-15" fill="#FFFFFF"></path>
                <path d="M84.2279515,45.1033781 L0,45" id="Stroke-17" stroke="#FFFFFF" stroke-width="4" stroke-linecap="round"></path>
                <polygon id="Fill-19" fill="#FFFFFF" points="85.3793195 43.7141122 74 50.4282245 74 37"></polygon>
                <polygon id="Stroke-21" stroke="#FFFFFF" stroke-width="4" stroke-linecap="round" stroke-linejoin="round" points="85.3793195 45.7141122 74 52.4282245 74 39"></polygon>
            </g>
        </g>
    </g>
</svg>