<?xml version="1.0" encoding="UTF-8"?>
<svg width="134px" height="80px" viewBox="0 0 134 80" version="1.1" xmlns="http://www.w3.org/2000/svg" xmlns:xlink="http://www.w3.org/1999/xlink">
    <!-- Generator: Sketch 41.1 (35376) - http://www.bohemiancoding.com/sketch -->
    <title>Page 1</title>
    <desc>Created with Sketch.</desc>
    <defs></defs>
    <g id="Page-1" stroke="none" stroke-width="1" fill="none" fill-rule="evenodd">
        <g id="Large-Device-Desktops" transform="translate(-861.000000, -2561.000000)">
            <g id="Page-1" transform="translate(863.000000, 2563.000000)">
                <path d="M113.092525,58.1285176 C110.832612,58.1285176 109,56.3085634 109,54.0642588 C109,51.8199543 110.832612,50 113.092525,50 C115.352439,50 117.185051,51.8199543 117.185051,54.0642588 C117.185051,56.3085634 115.352439,58.1285176 113.092525,58.1285176" id="Fill-5-Copy" fill="#FFFFFF"></path>
                <path d="M13.0925254,58.1285176 C10.8326119,58.1285176 9,56.3085634 9,54.0642588 C9,51.8199543 10.8326119,50 13.0925254,50 C15.352439,50 17.1850509,51.8199543 17.1850509,54.0642588 C17.1850509,56.3085634 15.352439,58.1285176 13.0925254,58.1285176" id="Fill-5-Copy-2" fill="#FFFFFF"></path>
                <path d="M100.092525,45.1285176 C97.8326119,45.1285176 96,43.3085634 96,41.0642588 C96,38.8199543 97.8326119,37 100.092525,37 C102.352439,37 104.185051,38.8199543 104.185051,41.0642588 C104.185051,43.3085634 102.352439,45.1285176 100.092525,45.1285176" id="Fill-7-Copy" fill="#FFFFFF"></path>
                <path d="M27.7558539,45.1285176 C25.4959403,45.1285176 23.6633284,43.3085634 23.6633284,41.0642588 C23.6633284,38.8199543 25.4959403,37 27.7558539,37 C30.0157674,37 31.8483793,38.8199543 31.8483793,41.0642588 C31.8483793,43.3085634 30.0157674,45.1285176 27.7558539,45.1285176" id="Fill-7-Copy-2" fill="#FFFFFF"></path>
                <path d="M100.092525,70.1285176 C97.8326119,70.1285176 96,68.3085634 96,66.0642588 C96,63.8199543 97.8326119,62 100.092525,62 C102.352439,62 104.185051,63.8199543 104.185051,66.0642588 C104.185051,68.3085634 102.352439,70.1285176 100.092525,70.1285176" id="Fill-9-Copy" fill="#FFFFFF"></path>
                <path d="M27.7558539,70.1285176 C25.4959403,70.1285176 23.6633284,68.3085634 23.6633284,66.0642588 C23.6633284,63.8199543 25.4959403,62 27.7558539,62 C30.0157674,62 31.8483793,63.8199543 31.8483793,66.0642588 C31.8483793,68.3085634 30.0157674,70.1285176 27.7558539,70.1285176" id="Fill-9-Copy-2" fill="#FFFFFF"></path>
                <path d="M72.0222969,24.057847 C105.378695,17.9132472 129.300664,27.3436999 129.300664,27.3436999" id="Stroke-13" stroke="#FFFFFF" stroke-width="4" stroke-linecap="round"></path>
                <path d="M0,22 C0,22 18.916238,31.2611407 55.6967586,25.2457531" id="Stroke-15" stroke="#FFFFFF" stroke-width="4" stroke-linecap="round"></path>
                <path d="M64.1853194,62.3692342 C60.2169613,62.3692342 57,59.1529752 57,55.1846171 C57,51.2162591 60.2169613,48 64.1853194,48 C68.1529752,48 71.3699365,51.2162591 71.3699365,55.1846171 C71.3699365,59.1529752 68.1529752,62.3692342 64.1853194,62.3692342 Z" id="Fill-17" fill="#FFFFFF"></path>
                <path d="M64.6302996,55.2431116 C64.6302996,55.2431116 60.0912501,20.178907 69.4102485,0.769977099" id="Stroke-19" stroke="#FFFFFF" stroke-width="4" stroke-linecap="round"></path>
                <path d="M71.5874438,24.4759589 L71.4492279,44.2139775 C75.0938533,46.5735038 77.5025364,50.6745852 77.5025364,55.3374586 C77.5025364,62.6547991 71.5686087,68.5887268 64.2512682,68.5887268 C56.9339277,68.5887268 51,62.6547991 51,55.3374586 C51,51.1029516 52.9873391,47.331923 56.0842174,44.9091951 L56.0842174,26.0189399" id="Stroke-21" stroke="#FFFFFF" stroke-width="4" stroke-linecap="round" stroke-linejoin="round"></path>
                <polygon id="Fill-23" fill="#FFFFFF" points="80.4824389 32 86.8025986 36.6818339 80 39.7688808"></polygon>
                <polygon id="Stroke-25" stroke="#FFFFFF" stroke-width="4" stroke-linecap="round" stroke-linejoin="round" points="80.4824389 32 86.8025986 36.6818339 80 39.7688808"></polygon>
                <path d="M79,74.8142384 C79,74.8142384 97.9604791,62.8761589 83.5645598,39" id="Stroke-27" stroke="#FFFFFF" stroke-width="4" stroke-linecap="round" stroke-linejoin="round"></path>
                <polygon id="Fill-29" fill="#FFFFFF" points="47.4957197 33 41 37.6818339 47.8152389 40.7688808"></polygon>
                <polygon id="Stroke-31" stroke="#FFFFFF" stroke-width="4" stroke-linecap="round" stroke-linejoin="round" points="47.4957197 33 41 37.6818339 47.8152389 40.7688808"></polygon>
                <path d="M48.9614895,75.8142384 C48.9614895,75.8142384 30.0010104,63.8761589 44.3969297,40" id="Stroke-33" stroke="#FFFFFF" stroke-width="4" stroke-linecap="round" stroke-linejoin="round"></path>
            </g>
        </g>
    </g>
</svg>