<svg width="106" height="188" viewBox="0 0 106 188" xmlns="http://www.w3.org/2000/svg" xmlns:xlink="http://www.w3.org/1999/xlink"><title>Page 1</title><defs><path id="a" d="M45.592 48.16V.275H.245V48.16h45.347z"/><path id="c" d="M23.316.085H.478v72.396h22.838V.085z"/></defs><g fill="none" fill-rule="evenodd"><path d="M74.426 163.956a.638.638 0 0 1-1.177-.142c-.648-2.43-2.59-6.867-8.14-6.867-4.666 0-8.443 3.771-8.443 8.418 0 1.05.192 2.052.543 2.976.217.571-.41 1.08-.934.765-3.814-2.29-6.363-6.46-6.363-11.222 0-11.409 7.689-16.09 6.377-33.295-1.975-25.905-6.557-41.585-10.413-59.302-6.474-29.743-6.89-44.716-6.614-43.913C50.097 52.94 59.104 89.514 66.14 128.14c2.623 14.389 10.036 20.018 10.036 29.743 0 2.41-.986 4.678-1.75 6.072" fill="#696A6A"/><path d="M46.354 83.857a50.803 50.803 0 0 1-3.585-.69c-4.093-.937-8.545-2.447-13.498-4.692C18.497 73.593 0 81.842 0 81.842V49.574h36.886c1.239 0 2.314.853 2.595 2.054a1960.6 1960.6 0 0 1 1.982 9.052c.32 1.448.642 2.94.968 4.472.034.163.068.326.107.489.214.993.428 1.992.642 3.002.095.427.185.859.275 1.285.164.752.321 1.51.479 2.267l.253 1.19.372 1.762c.416 1.981.822 3.945 1.216 5.86.1.487.197.97.298 1.447.096.471.186.943.281 1.403" fill="#B3B5B7"/><g transform="translate(60.23 49.3)"><mask id="b" fill="#fff"><use xlink:href="#a"/></mask><path d="M45.592.274v32.269s-16.25-7.088-28.426-2.806c-4.216 1.481-8.235 2.895-12.361 3.894-.22 5.562 1.869 12.268 1.891 12.34a1.678 1.678 0 0 1-1.103 2.111 1.59 1.59 0 0 1-.507.079 1.68 1.68 0 0 1-1.61-1.179c-.123-.382-2.949-9.45-1.778-16.067.371-2.076 1.356-4.186 2.854-6.095 3.343-4.265 1.75-8.344-1.267-14.551-1.233-2.535-2.212-5.21-2.95-7.523C-.055 1.521.868.274 2.158.274h43.434z" fill="#B3B5B7" mask="url(#b)"/></g><path d="M59.847 177.285a1.68 1.68 0 0 1-1.632 1.268c-.141 0-.282-.017-.417-.05-9.963-2.526-14.562-10.843-15.468-17.201-.822-5.713.86-10.478 2.814-15.994.906-2.576 1.942-5.5 2.832-8.833 2.178-8.155.151-21.562-1.47-32.336-.247-1.645-.49-3.233-.709-4.754-.49-3.384-1.638-9.394-3.028-16.218-2.438-11.96-5.612-26.416-7.2-33.593h1.317c1.239 0 2.314.853 2.595 2.054a1960.6 1960.6 0 0 1 1.982 9.052c.315 1.442.642 2.94.968 4.472.034.163.068.326.107.489.208.987.428 1.992.642 3.002.095.427.185.859.275 1.285.158.752.321 1.51.479 2.267l.253 1.19.372 1.762c.416 1.981.822 3.945 1.216 5.86.1.487.197.97.298 1.447.096.471.186.943.281 1.403 1.278 6.302 2.32 11.808 2.787 15.051.22 1.51.456 3.098.703 4.731 1.672 11.078 3.75 24.867 1.39 33.705-.922 3.457-1.975 6.449-2.91 9.08-1.874 5.31-3.354 9.507-2.65 14.4.76 5.326 4.61 12.302 12.951 14.418a1.677 1.677 0 0 1 1.222 2.043m25.201-22.515c-.512-5.568-3.107-10.63-5.849-15.989-2.887-5.646-5.876-11.482-7.272-18.99-2.184-11.769-3.901-19.542-6.282-30.305a2382.846 2382.846 0 0 1-2.18-9.908c-.438 4.673-.452 9.29-.39 13.934 2.007 9.103 3.587 16.415 5.53 26.89 1.487 7.997 4.729 14.322 7.583 19.911 2.707 5.28 5.043 9.843 5.5 14.765.314 3.407.489 14.85-10.426 19.277a1.68 1.68 0 0 0-.928 2.189 1.688 1.688 0 0 0 2.2.926c8.821-3.575 13.499-12.06 12.514-22.7" fill="#B3B5B7"/><path d="M69.095 106.114c-1.125-5.05 2.674-4.77 4.363-3.087 1.688 1.684 4.08.842 6.332.421 2.252-.42 2.744 4.49 6.474 3.227 2.934-.994 3.515-4.601 9.569-4.91 2.744-.14 3.096-9.19 1.688-10.242-1.108-.829-4.643-.842-6.754-2.245-2.111-1.403-5.488-.701-7.318 1.964-1.83 2.666-6.473-3.227-12.102-1.403-5.63 1.824-6.473-3.156-6.473-3.156l4.221 19.43z" fill="#B3B5B7"/><path d="M66.135 163.063c0 1.43-1.163 2.59-2.598 2.59a2.595 2.595 0 0 1-2.598-2.59c0-1.43 1.163-2.59 2.598-2.59a2.595 2.595 0 0 1 2.598 2.59" fill="#0B7F40"/><path d="M64.403 163.063a.865.865 0 0 1-1.732 0 .865.865 0 1 1 1.732 0" fill="#FEFEFE"/><path d="M70.885 164.957c0 1.43-1.164 2.59-2.598 2.59a2.595 2.595 0 0 1-2.599-2.59c0-1.43 1.164-2.59 2.599-2.59a2.595 2.595 0 0 1 2.598 2.59" fill="#0B7F40"/><path d="M69.153 164.957a.865.865 0 0 1-1.732 0 .865.865 0 1 1 1.732 0" fill="#FEFEFE"/><path d="M64.623 167.903c0 1.43-1.164 2.59-2.599 2.59a2.595 2.595 0 0 1-2.598-2.59c0-1.43 1.164-2.59 2.598-2.59a2.595 2.595 0 0 1 2.599 2.59" fill="#0B7F40"/><path d="M62.89 167.903a.865.865 0 0 1-1.732 0 .865.865 0 1 1 1.732 0" fill="#FEFEFE"/><path d="M67.507 171.867c0 1.43-1.163 2.59-2.598 2.59a2.595 2.595 0 0 1-2.598-2.59 2.594 2.594 0 0 1 2.598-2.591 2.595 2.595 0 0 1 2.598 2.59" fill="#0B7F40"/><path d="M65.775 171.867a.865.865 0 0 1-1.732 0c0-.478.388-.864.866-.864.479 0 .866.386.866.864" fill="#FEFEFE"/><path fill="#0B7F40" d="M66.166 179.602l-2.066.03.085 6.016 2.067-.03z"/><path fill="#0B7F40" d="M65.251 187.915l-3.183-5.322 6.214-.088zM59.15 42.767l1.968-.625-1.832-5.733-1.969.625z"/><path fill="#0B7F40" d="M57.607 34.547l4.595 4.173-5.922 1.88z"/><g transform="translate(40.528 .476)"><mask id="d" fill="#fff"><use xlink:href="#c"/></mask><path d="M23.21 68.61c.475 1.692-.7 3.413-2.42 3.795-1.72.382-3.334-.722-3.807-2.414-.78-2.795.027-5.886-1.624-12.335C10.31 37.928-.712.374.583.086c1.27-.28 11.303 36.926 17.403 56.775 2.168 7.054 4.41 8.839 5.225 11.75" fill="#696A6A" mask="url(#d)"/></g></g></svg>