<svg width="106" height="160" viewBox="0 0 106 160" xmlns="http://www.w3.org/2000/svg" xmlns:xlink="http://www.w3.org/1999/xlink"><title>Page 1</title><defs><path id="a" d="M35.628 159.101H106V.097H0V159.1h59.999V28.508H35.63V159.1z"/></defs><g fill="none" fill-rule="evenodd"><path d="M76.303 138.645c0 2.438-.987 4.74-1.753 6.148a.637.637 0 0 1-1.179-.142c-.648-2.466-2.593-6.955-8.153-6.955-4.674 0-8.457 3.819-8.457 8.524 0 1.062.191 2.08.541 3.011a.642.642 0 0 1-.936.779 13.28 13.28 0 0 1-6.371-11.365c0-11.552 7.702-16.29 6.388-33.712-1.98-26.229-6.569-42.105-10.43-60.044C44.305 37.23 37.99 15.666 33.846.57h7.594c9.264 33.041 18.167 71.089 24.809 107.96 2.627 14.57 10.053 20.27 10.053 30.116" fill="#696A6A"/><path d="M46.431 63.692a50.4 50.4 0 0 1-3.591-.7c-4.1-.948-8.56-2.477-13.52-4.75C18.526 53.3 0 61.652 0 61.652V28.979h36.948c1.24 0 2.317.864 2.599 2.08.57 2.602 1.252 5.739 1.985 9.165.321 1.466.642 2.978.97 4.529.033.165.067.33.107.494a912.6 912.6 0 0 1 .642 3.04c.096.432.186.87.277 1.301.163.762.321 1.529.479 2.296l.254 1.205.372 1.784c.417 2.006.823 3.994 1.218 5.932.101.494.197.983.298 1.466.096.477.187.955.282 1.42M106 28.98v32.672s-16.278-7.177-28.473-2.841c-4.494 1.596-8.768 3.113-13.183 4.13a49.624 49.624 0 0 1-3.315.671c-.282-1.284-.57-2.62-.874-4.012a292.525 292.525 0 0 0-.778-3.494c-.04-.188-.085-.375-.13-.563-.158-.687-.316-1.375-.479-2.068-.164-.687-.327-1.38-.496-2.074a445.11 445.11 0 0 0-1.02-4.148l-.018-.074a789.436 789.436 0 0 0-1.02-4.006c-.085-.335-.175-.67-.26-1-.095-.375-.191-.739-.287-1.102-.164-.62-.327-1.233-.485-1.841-.135-.5-.265-.995-.395-1.483-.146-.54-.287-1.074-.428-1.603-.355-1.307-.7-2.568-1.026-3.756-.474-1.716.806-3.409 2.57-3.409H106z" fill="#B3B5B7"/><g transform="translate(0 .472)"><mask id="b" fill="#fff"><use xlink:href="#a"/></mask><path d="M59.946 157.817a1.686 1.686 0 0 1-2.052 1.233c-9.98-2.557-14.586-10.978-15.494-17.416-.823-5.784.863-10.608 2.82-16.194.907-2.608 1.944-5.569 2.835-8.944 2.182-8.256.152-21.83-1.471-32.74-.248-1.665-.49-3.273-.71-4.813-.491-3.427-1.642-9.512-3.034-16.422-2.442-12.109-5.622-26.746-7.212-34.013h1.32c1.24 0 2.317.863 2.599 2.08.57 2.602 1.252 5.738 1.985 9.165a1125.373 1125.373 0 0 1 1.077 5.023c.208 1 .428 2.017.642 3.04.096.431.186.869.277 1.3.158.762.321 1.53.479 2.296.084.404.17.807.254 1.205l.372 1.784c.417 2.006.823 3.995 1.218 5.933.101.494.197.983.298 1.466.096.477.187.954.282 1.42 1.28 6.381 2.323 11.955 2.791 15.24.22 1.528.457 3.136.705 4.79 1.675 11.216 3.755 25.178 1.393 34.127-.925 3.5-1.98 6.529-2.915 9.194-1.878 5.375-3.36 9.625-2.656 14.58.761 5.393 4.618 12.456 12.974 14.598a1.699 1.699 0 0 1 1.223 2.068" fill="#B3B5B7" mask="url(#b)"/></g><path d="M72.655 158.476a1.685 1.685 0 0 1-2.204-.937c-.35-.87.067-1.864.93-2.216 10.933-4.484 10.758-16.07 10.442-19.519-.457-4.983-2.797-9.603-5.509-14.95-2.858-5.659-6.106-12.063-7.594-20.16-2.177-11.859-3.896-19.706-6.27-30.57-.451-2.046-.92-4.2-1.421-6.512-.282-1.284-.57-2.62-.874-4.012a269.723 269.723 0 0 0-.778-3.494c-.04-.188-.085-.375-.13-.563-.152-.687-.316-1.375-.479-2.068-.164-.687-.327-1.38-.496-2.074a317.789 317.789 0 0 0-1.02-4.148l-.018-.074a631.544 631.544 0 0 0-1.02-4.006c-.085-.335-.17-.67-.26-1-.095-.375-.191-.739-.287-1.102-.164-.625-.321-1.239-.485-1.841-.135-.5-.265-.995-.395-1.483-.146-.54-.287-1.074-.428-1.603-.355-1.307-.7-2.568-1.026-3.756-.474-1.716.806-3.409 2.57-3.409a698.393 698.393 0 0 1 3.756 13.99c1.342 5.216 2.69 10.75 3.806 15.904.304 1.415.597 2.767.88 4.069.495 2.29.963 4.42 1.409 6.449 2.385 10.898 4.105 18.768 6.292 30.684 1.398 7.602 4.392 13.512 7.285 19.228 2.746 5.427 5.345 10.552 5.858 16.189.987 10.773-3.699 19.365-12.534 22.984" fill="#B3B5B7"/><path d="M69.21 86.227c-1.128-5.114 2.678-4.83 4.37-3.125 1.691 1.705 4.088.852 6.343.426s2.749 4.546 6.484 3.267c2.94-1.006 3.522-4.658 9.585-4.972 2.749-.142 3.101-9.304 1.692-10.37-1.111-.839-4.652-.852-6.766-2.272-2.115-1.42-5.498-.71-7.33 1.988-1.833 2.7-6.484-3.267-12.123-1.42-5.638 1.847-6.484-3.196-6.484-3.196l4.23 19.674z" fill="#B3B5B7"/><path d="M66.245 143.889a2.613 2.613 0 0 1-2.602 2.623 2.613 2.613 0 0 1-2.603-2.623 2.613 2.613 0 0 1 2.603-2.623 2.613 2.613 0 0 1 2.602 2.623" fill="#13B156"/><path d="M64.51 143.889a.871.871 0 0 1-.867.874.871.871 0 0 1-.868-.874c0-.483.389-.875.868-.875s.867.392.867.875" fill="#FEFEFE"/><path d="M71.003 145.807a2.613 2.613 0 0 1-2.603 2.622 2.613 2.613 0 0 1-2.603-2.622 2.613 2.613 0 0 1 2.603-2.623 2.613 2.613 0 0 1 2.603 2.623" fill="#13B156"/><path d="M69.268 145.807a.871.871 0 0 1-.868.874.871.871 0 0 1-.867-.874c0-.483.388-.875.867-.875.48 0 .868.392.868.875" fill="#FEFEFE"/><path d="M64.73 148.79a2.613 2.613 0 0 1-2.603 2.623 2.613 2.613 0 0 1-2.602-2.623 2.613 2.613 0 0 1 2.602-2.623 2.613 2.613 0 0 1 2.603 2.623" fill="#13B156"/><path d="M62.995 148.79a.871.871 0 0 1-.868.874.871.871 0 0 1-.867-.874c0-.483.389-.875.867-.875.48 0 .868.392.868.875" fill="#FEFEFE"/><path d="M67.62 152.803a2.613 2.613 0 0 1-2.603 2.623 2.613 2.613 0 0 1-2.603-2.623 2.613 2.613 0 0 1 2.603-2.623 2.613 2.613 0 0 1 2.603 2.623" fill="#13B156"/><path d="M65.885 152.803a.871.871 0 0 1-.868.874.871.871 0 0 1-.867-.874c0-.483.388-.875.867-.875.48 0 .868.392.868.875" fill="#FEFEFE"/><path d="M54.495 157.743s-11.09-4.725-11.09-20.038 10.315-17.36 6.454-43.31c-3.86-25.95-6.454-38.548-6.454-38.548" stroke="#B3B5B7" stroke-width="3" stroke-linecap="round"/></g></svg>