<svg width="106" height="150" viewBox="0 0 106 150" xmlns="http://www.w3.org/2000/svg"><title>Page 1</title><g fill="none" fill-rule="evenodd"><path d="M105.59 28.137v32.357s-16.19-7.107-28.321-2.813c-4.24 1.497-8.278 2.926-12.434 3.933-.224.051-.449.107-.679.158a44.83 44.83 0 0 1-2.613.546c-.225.04-.455.079-.685.118-.28-1.272-.566-2.594-.869-3.973a293.72 293.72 0 0 0-.903-4.018c-.157-.68-.314-1.362-.477-2.048-.162-.681-.325-1.368-.493-2.054a448.185 448.185 0 0 0-1.015-4.108l-.017-.073a779.025 779.025 0 0 0-1.015-3.968c-.084-.332-.174-.664-.258-.99a139.7 139.7 0 0 0-.286-1.092c-.163-.613-.325-1.221-.483-1.823-.134-.495-.263-.985-.392-1.469-.146-.535-.286-1.063-.426-1.587-.163-.59-.544-2.145-.94-3.774-.414-1.69.862-3.322 2.596-3.322h49.712zm-62.5 33.776c-.017 0-.028-.006-.04-.006-.022-.006-.044-.006-.061-.011-4.515-1.058-9.966-3.017-13.825-4.778C18.43 52.222 0 60.494 0 60.494V28.137h37.41a2.67 2.67 0 0 1 2.613 2.122c0 .005.006.016.006.022.095.428.185.861.274 1.289.158.754.32 1.514.477 2.273.084.4.168.8.253 1.193.094.455 4.133 17.252 4.928 27.24.17 2.13-2.615-.304-2.87-.363M68.86 85.255c-1.647-4.467 4.265-5.873 5.703-3.517 1.242 2.036 2.844.844 5.087.422 2.244-.422 2.734 4.502 6.45 3.236 2.924-.997 3.503-4.614 9.534-4.924 2.735-.141 3.085-9.215 1.683-10.27-1.105-.831-4.627-.844-6.73-2.251-2.103-1.407-5.468-.704-7.291 1.97-1.823 2.672-6.45-3.236-12.058-1.408-5.609 1.83-6.45-3.165-6.45-3.165l-.204 6.003.958 7.48 3.319 6.424z" fill="#B3B5B7"/><path d="M65.952 131.81a2.593 2.593 0 0 1-2.59 2.597 2.593 2.593 0 0 1-2.588-2.598 2.593 2.593 0 0 1 2.589-2.598 2.593 2.593 0 0 1 2.589 2.598" fill="#13B156"/><path d="M64.226 131.81a.865.865 0 0 1-.864.865.864.864 0 0 1-.862-.866c0-.478.386-.866.862-.866.477 0 .864.388.864.866" fill="#FEFEFE"/><path d="M70.684 133.708a2.593 2.593 0 0 1-2.59 2.598 2.593 2.593 0 0 1-2.588-2.598 2.593 2.593 0 0 1 2.589-2.597 2.593 2.593 0 0 1 2.589 2.597" fill="#13B156"/><path d="M68.958 133.708a.865.865 0 0 1-.863.866.864.864 0 0 1-.863-.866c0-.478.386-.866.863-.866.476 0 .863.388.863.866" fill="#FEFEFE"/><path d="M64.444 136.663a2.593 2.593 0 0 1-2.589 2.597 2.593 2.593 0 0 1-2.588-2.597 2.593 2.593 0 0 1 2.588-2.598 2.593 2.593 0 0 1 2.59 2.598" fill="#13B156"/><path d="M62.718 136.663a.865.865 0 0 1-.863.866.864.864 0 0 1-.862-.866.864.864 0 1 1 1.725 0" fill="#FEFEFE"/><path d="M67.319 140.637a2.593 2.593 0 0 1-2.59 2.598 2.593 2.593 0 0 1-2.588-2.598 2.593 2.593 0 0 1 2.589-2.598 2.593 2.593 0 0 1 2.589 2.598" fill="#13B156"/><path d="M65.593 140.637a.865.865 0 0 1-.863.866.864.864 0 0 1-.863-.866c0-.478.386-.866.863-.866.476 0 .863.388.863.866" fill="#FEFEFE"/><path d="M58.018 127.46c-1.856 2.889-3.494 8.97-1.671 14.456 1.823 5.487 10.474 9.226 15.598 2.145 5.328-7.362 1.163-16.017-2.336-18.852-3.88-3.141-8.986-1.805-11.591 2.251z" stroke="#B3B5B7" stroke-width="3" stroke-linecap="round"/><path d="M65.597 97.36c0 5.38-4.633 9.667-10.107 9.07-4.167-.455-7.543-3.815-8.02-7.99a9.15 9.15 0 0 1 .819-4.997c1.604-3.382 2.176-7.164 1.968-10.906-.235-4.215-.443-8.801-.796-13.46-1.969-25.977-6.534-41.7-10.376-59.465A627.703 627.703 0 0 0 36.904 0h6.954c5.637 22.78 10.853 47.422 15.418 72.638.6 3.343 1.127 6.742 1.492 9.989.392 3.478 1.497 6.86 3.387 9.803a9.144 9.144 0 0 1 1.442 4.93" fill="#696A6A"/><path d="M61.29 56.274s2.306 10.72 3.458 18.758c1.963 13.693 5.713 14.01 6.45 21.29.654 6.472-2.618 14.749-11.778 16.155-11.788 1.81-17.43-7.361-17.574-13.435-.186-7.878 2.099-7.388 3.366-17.07 1.215-9.285-2.43-30.387-2.43-30.387" stroke="#B3B5B7" stroke-width="3" stroke-linecap="round"/><path fill="#13B156" d="M60.842 120.33l2.01-.45-1.31-5.889-2.01.45z"/><path fill="#13B156" d="M60.04 111.983l4.19 4.575-6.043 1.353z"/></g></svg>