<svg width="106" height="160" viewBox="0 0 106 160" xmlns="http://www.w3.org/2000/svg"><title>Page 1 Copy 2</title><g fill="none" fill-rule="evenodd"><path d="M106 28.154V60.53s-16.278-7.112-28.473-2.816c-4.263 1.498-8.323 2.928-12.5 3.936-.226.051-.452.107-.683.158a45.254 45.254 0 0 1-3.315.664c-.282-1.272-.57-2.595-.874-3.975a287.63 287.63 0 0 0-.908-4.02 350.94 350.94 0 0 0-.479-2.05c-.164-.681-.327-1.368-.496-2.055a437.779 437.779 0 0 0-1.02-4.11c-.006-.029-.012-.051-.018-.074a776.51 776.51 0 0 0-1.02-3.97c-.085-.332-.175-.664-.26-.99a106.02 106.02 0 0 0-.287-1.093c-.164-.614-.327-1.222-.485-1.824-.135-.496-.265-.986-.395-1.47-.146-.535-.287-1.064-.428-1.588-.164-.59-.547-2.146-.946-3.776a2.686 2.686 0 0 1 2.611-3.324H106zM56.936 139.305a1.683 1.683 0 0 1-2.053 1.222c-9.98-2.534-14.586-10.879-15.494-17.258-.823-5.732.863-10.513 2.82-16.048.907-2.584 1.945-5.518 2.835-8.863 2.182-8.181.153-21.633-1.471-32.444-.209-1.385-.412-2.731-.604-4.026-.045-.006-.084-.017-.13-.028-4.098-.94-8.558-2.455-13.52-4.708C18.527 52.254 0 60.531 0 60.531V28.154h37.607c1.268 0 2.367.884 2.629 2.124l.005.021c.095.428.186.862.276 1.29.158.754.321 1.514.48 2.274.084.4.168.8.253 1.194l.372 1.768c.417 1.988.823 3.959 1.218 5.879.101.49.197.974.299 1.452.095.473.186.946.282 1.408 1.28 6.324 2.323 11.847 2.79 15.102.22 1.515.457 3.108.705 4.747 1.675 11.115 3.755 24.95 1.393 33.818-.925 3.469-1.98 6.47-2.915 9.11-1.878 5.327-3.36 9.54-2.656 14.45.761 5.343 4.618 12.342 12.974 14.465a1.682 1.682 0 0 1 1.224 2.05" fill="#B3B5B7"/><path d="M69.644 139.491a1.687 1.687 0 1 1-1.274-3.125c10.933-4.443 10.758-15.924 10.442-19.342-.457-4.938-2.796-9.516-5.508-14.814-2.86-5.609-6.107-11.954-7.595-19.978-1.421-7.675-3.375-13.655-4.717-19.877.886-.158 2.07-2.038 2.938-2.247.231-.05.55.685.775.634 1.348 6.244 2.898 13.162 4.33 20.876 1.399 7.534 4.393 13.39 7.285 19.055 2.746 5.377 5.345 10.456 5.858 16.042.987 10.676-3.699 19.19-12.534 22.776" fill="#B3B5B7"/><path d="M69.209 84.884c-1.128-5.068 2.678-4.786 4.37-3.097 1.691 1.69 4.087.845 6.343.422 2.255-.422 2.748 4.505 6.484 3.238 2.939-.997 3.521-4.617 9.585-4.927 2.748-.14 3.1-9.22 1.691-10.276-1.11-.832-4.651-.845-6.766-2.252-2.114-1.408-5.497-.704-7.33 1.97-1.832 2.675-6.484-3.237-12.122-1.407s-6.484-3.168-6.484-3.168l4.229 19.497z" fill="#B3B5B7"/><path d="M63.848 142.962c0 1.435-1.166 2.6-2.603 2.6a2.601 2.601 0 0 1-2.603-2.6 2.602 2.602 0 0 1 2.603-2.599 2.601 2.601 0 0 1 2.603 2.6" fill="#0B7F40"/><path d="M62.113 142.962a.867.867 0 1 1-1.735 0 .867.867 0 0 1 1.735 0" fill="#FEFEFE"/><path d="M68.605 144.863a2.601 2.601 0 0 1-2.603 2.599 2.601 2.601 0 0 1-2.602-2.6 2.6 2.6 0 0 1 2.602-2.599 2.601 2.601 0 0 1 2.603 2.6" fill="#0B7F40"/><path d="M66.87 144.863a.867.867 0 1 1-1.734-.002.867.867 0 0 1 1.734.002" fill="#FEFEFE"/><path d="M62.332 147.819a2.6 2.6 0 0 1-2.602 2.599 2.601 2.601 0 0 1-2.603-2.6 2.6 2.6 0 0 1 2.603-2.598 2.601 2.601 0 0 1 2.602 2.599" fill="#0B7F40"/><path d="M60.597 147.819a.867.867 0 1 1-1.734-.001.867.867 0 0 1 1.734 0" fill="#FEFEFE"/><path d="M65.222 151.795c0 1.436-1.165 2.6-2.603 2.6a2.601 2.601 0 0 1-2.602-2.6 2.6 2.6 0 0 1 2.602-2.599 2.601 2.601 0 0 1 2.603 2.6" fill="#0B7F40"/><path d="M63.487 151.795a.867.867 0 1 1-1.734 0 .867.867 0 0 1 1.734 0" fill="#FEFEFE"/><path d="M69.098 138.106s6.555 8.693.776 16.364c-5.271 6.998-13.85 3.344-15.682-2.146-1.832-5.49 1.128-13.409 1.128-13.409" stroke="#B3B5B7" stroke-width="3" stroke-linecap="round"/><path d="M73.298 119.84c0 .444-.034.884-.096 1.317a.017.017 0 0 1 0 .023c-.598 6.684-6.219 11.92-13.07 11.92-6.14 0-11.282-4.212-12.708-9.899-.068-.242-.124-.49-.175-.743a12.146 12.146 0 0 1-.17-1.12 12.22 12.22 0 0 1-.09-1.498c0-11.448 7.702-16.144 6.389-33.408-1.98-25.991-6.569-41.724-10.431-59.5C41.57 20.592 39.01 9.905 36.62 0h6.642c7.391 27.382 14.208 58.233 19.982 89.997 2.627 14.437 10.053 20.085 10.053 29.843" fill="#696A6A"/></g></svg>