<svg id="Layer_1" data-name="Layer 1" xmlns="http://www.w3.org/2000/svg" viewBox="0 0 28.19 28.19"><defs><style>.cls-1{fill:#56c3bb;}</style></defs><title>Icon_</title><path class="cls-1" d="M25,0H22.13a1,1,0,0,0,0,2H25a1.21,1.21,0,0,1,1.21,1.21V9.16H2V3.21A1.21,1.21,0,0,1,3.21,2H5.5a1,1,0,0,0,0-2H3.21A3.22,3.22,0,0,0,0,3.21V25a3.22,3.22,0,0,0,3.21,3.21H25A3.22,3.22,0,0,0,28.19,25V3.21A3.22,3.22,0,0,0,25,0Zm0,26.19H3.21A1.21,1.21,0,0,1,2,25V11.16H26.19V25A1.21,1.21,0,0,1,25,26.19Z"/><path class="cls-1" d="M9.69,2h8.56a1,1,0,0,0,0-2H9.69A1,1,0,0,0,9.69,2Z"/><path class="cls-1" d="M5.06,5.58A2.49,2.49,0,1,0,7.55,3.09,2.49,2.49,0,0,0,5.06,5.58ZM7.55,4.5A1.09,1.09,0,1,1,6.46,5.58,1.09,1.09,0,0,1,7.55,4.5Z"/><path class="cls-1" d="M17.72,5.58a2.49,2.49,0,1,0,2.49-2.49A2.49,2.49,0,0,0,17.72,5.58ZM20.21,4.5a1.09,1.09,0,1,1-1.09,1.09A1.09,1.09,0,0,1,20.21,4.5Z"/><rect class="cls-1" x="3.55" y="13.07" width="6" height="4.75" rx="0.64" ry="0.64"/><rect class="cls-1" x="11.05" y="13.07" width="6" height="4.75" rx="0.64" ry="0.64"/><rect class="cls-1" x="18.59" y="13.07" width="6" height="4.75" rx="0.64" ry="0.64"/><rect class="cls-1" x="11.05" y="19.3" width="6" height="4.75" rx="0.64" ry="0.64"/><rect class="cls-1" x="18.59" y="19.3" width="6" height="4.75" rx="0.64" ry="0.64"/></svg>