<?xml version="1.0" encoding="utf-8"?>
<!-- Generator: Adobe Illustrator 19.2.0, SVG Export Plug-In . SVG Version: 6.00 Build 0)  -->
<svg version="1.1" id="Layer_1" xmlns="http://www.w3.org/2000/svg" xmlns:xlink="http://www.w3.org/1999/xlink" x="0px" y="0px"
	 viewBox="0 0 29.7 29.8" style="enable-background:new 0 0 29.7 29.8;" xml:space="preserve">
<style type="text/css">
	.st0{fill:#B3B4B4;}
	.st1{fill:#56C3BB;}
</style>
<title>Icon_SVG</title>
<path class="st0" d="M27.3,18.6c-1.4,7.5-8.6,12.4-16,11C3.7,28.2-1.2,21,0.2,13.5c0.8-4.4,3.6-7.9,7.3-9.7c0.1,0,0.2-0.1,0.2-0.1
	C8,3.6,8.2,3.6,8.5,3.6c0.7,0.1,1.1,0.8,1,1.4C9.4,5.4,9.1,5.8,8.8,5.9c0,0,0,0-0.1,0c-3.1,1.5-5.4,4.4-6.1,8
	C1.5,20,5.5,26,11.6,27.1c6.1,1.2,12-2.8,13.2-8.9l0,0c0.1-0.7,0.8-1.1,1.5-1C26.9,17.3,27.4,17.9,27.3,18.6z"/>
<path class="st1" d="M29.6,13.8c-0.1,0.7-0.8,1.1-1.5,1c-0.6-0.1-1-0.6-1-1.2c0,0,0,0,0,0c0-0.8-0.1-1.7-0.3-2.5
	c-1.5-6-7.6-9.7-13.7-8.2c0,0,0,0,0,0c-0.7,0.2-1.4-0.2-1.5-0.9c-0.2-0.7,0.2-1.4,0.9-1.5c7.4-1.9,14.8,2.6,16.8,9.9
	c0.3,1.1,0.4,2.1,0.4,3.2c0,0,0,0.1,0,0.1C29.7,13.7,29.7,13.7,29.6,13.8z"/>
</svg>
