<svg width="90" height="93" viewBox="0 0 90 93" xmlns="http://www.w3.org/2000/svg"><title>Page 1</title><g fill="none" fill-rule="evenodd"><path d="M38.49 35.248c-2.75-14.826-1.807-21.394-.911-32.39M41 90.68c1.29-11.533 2.133-17.725 0-30.68" stroke="#FFF" stroke-width="4" stroke-linecap="round"/><path d="M72.093 78.129c-2.26 0-4.093-1.82-4.093-4.065C68 71.82 69.833 70 72.093 70s4.092 1.82 4.092 4.064c0 2.245-1.833 4.065-4.092 4.065m-13-13c-2.26 0-4.093-1.82-4.093-4.065C55 58.82 56.833 57 59.093 57s4.092 1.82 4.092 4.064c0 2.245-1.833 4.065-4.092 4.065m0 25c-2.26 0-4.093-1.82-4.093-4.065C55 83.82 56.833 82 59.093 82s4.092 1.82 4.092 4.064c0 2.245-1.833 4.065-4.092 4.065m13-66c-2.26 0-4.093-1.82-4.093-4.065C68 17.82 69.833 16 72.093 16s4.092 1.82 4.092 4.064c0 2.245-1.833 4.065-4.092 4.065m-13-13c-2.26 0-4.093-1.82-4.093-4.065C55 4.82 56.833 3 59.093 3s4.092 1.82 4.092 4.064c0 2.245-1.833 4.065-4.092 4.065m0 25c-2.26 0-4.093-1.82-4.093-4.065C55 29.82 56.833 28 59.093 28s4.092 1.82 4.092 4.064c0 2.245-1.833 4.065-4.092 4.065" fill="#FFF"/><path d="M86.228 47.103L2 47" stroke="#FFF" stroke-width="4" stroke-linecap="round"/><path fill="#FFF" d="M87.38 45.714L76 52.428V39z"/><path stroke="#FFF" stroke-width="4" stroke-linecap="round" stroke-linejoin="round" d="M87.38 47.714L76 54.428V41z"/></g></svg>