<svg width="134" height="80" viewBox="0 0 134 80" xmlns="http://www.w3.org/2000/svg"><title>Page 1</title><g fill="none" fill-rule="evenodd"><path d="M115.093 60.129c-2.26 0-4.093-1.82-4.093-4.065 0-2.244 1.833-4.064 4.093-4.064s4.092 1.82 4.092 4.064c0 2.245-1.833 4.065-4.092 4.065m-100 0c-2.26 0-4.093-1.82-4.093-4.065C11 53.82 12.833 52 15.093 52s4.092 1.82 4.092 4.064c0 2.245-1.833 4.065-4.092 4.065m87-13c-2.26 0-4.093-1.82-4.093-4.065C98 40.82 99.833 39 102.093 39s4.092 1.82 4.092 4.064c0 2.245-1.833 4.065-4.092 4.065m-72.337 0c-2.26 0-4.093-1.82-4.093-4.065 0-2.244 1.833-4.064 4.093-4.064s4.092 1.82 4.092 4.064c0 2.245-1.832 4.065-4.092 4.065m72.337 25c-2.26 0-4.093-1.82-4.093-4.065C98 65.82 99.833 64 102.093 64s4.092 1.82 4.092 4.064c0 2.245-1.833 4.065-4.092 4.065m-72.337 0c-2.26 0-4.093-1.82-4.093-4.065 0-2.244 1.833-4.064 4.093-4.064s4.092 1.82 4.092 4.064c0 2.245-1.832 4.065-4.092 4.065" fill="#FFF"/><path d="M74.022 26.058c33.357-6.145 57.279 3.286 57.279 3.286M2 24s18.916 9.261 55.697 3.246" stroke="#FFF" stroke-width="4" stroke-linecap="round"/><path d="M66.185 64.37a7.185 7.185 0 1 1 0-14.37 7.185 7.185 0 0 1 0 14.37z" fill="#FFF"/><path d="M66.63 57.243S62.091 22.18 71.41 2.77" stroke="#FFF" stroke-width="4" stroke-linecap="round"/><path d="M73.587 26.476l-.138 19.738a13.23 13.23 0 0 1 6.054 11.123c0 7.318-5.934 13.252-13.252 13.252C58.934 70.589 53 64.655 53 57.337c0-4.234 1.987-8.005 5.084-10.428V28.02" stroke="#FFF" stroke-width="4" stroke-linecap="round" stroke-linejoin="round"/><path fill="#FFF" d="M82.482 34l6.32 4.682L82 41.769z"/><path stroke="#FFF" stroke-width="4" stroke-linecap="round" stroke-linejoin="round" d="M82.482 34l6.32 4.682L82 41.769zM81 76.814S99.96 64.876 85.565 41"/><path fill="#FFF" d="M49.496 35L43 39.682l6.815 3.087z"/><path stroke="#FFF" stroke-width="4" stroke-linecap="round" stroke-linejoin="round" d="M49.496 35L43 39.682l6.815 3.087zm1.465 42.814S32.001 65.876 46.397 42"/></g></svg>