<svg width="137" height="50" viewBox="0 0 137 50" xmlns="http://www.w3.org/2000/svg"><title>Page 1</title><g fill="none" fill-rule="evenodd"><path d="M34.859 32.92a3.926 3.926 0 0 1-3.93 3.922A3.926 3.926 0 0 1 27 32.92c0-2.164 1.76-3.92 3.93-3.92s3.929 1.756 3.929 3.92m74 0a3.926 3.926 0 0 1-3.93 3.922A3.926 3.926 0 0 1 101 32.92c0-2.165 1.76-3.921 3.93-3.921s3.929 1.756 3.929 3.92m-86 13.001a3.926 3.926 0 0 1-3.93 3.922A3.926 3.926 0 0 1 15 45.92c0-2.164 1.76-3.92 3.93-3.92s3.929 1.756 3.929 3.92m74 0a3.926 3.926 0 0 1-3.93 3.922A3.926 3.926 0 0 1 89 45.92c0-2.164 1.76-3.92 3.93-3.92s3.929 1.756 3.929 3.92m-51 0a3.926 3.926 0 0 1-3.93 3.922A3.926 3.926 0 0 1 38 45.92c0-2.164 1.76-3.92 3.93-3.92s3.929 1.756 3.929 3.92m74 0a3.926 3.926 0 0 1-3.93 3.922A3.926 3.926 0 0 1 112 45.92c0-2.165 1.76-3.921 3.93-3.921s3.929 1.756 3.929 3.92m-51.866-4.315c-3.612 0-6.54-2.92-6.54-6.525 0-3.604 2.928-6.525 6.54-6.525 3.611 0 6.54 2.921 6.54 6.525 0 3.604-2.929 6.525-6.54 6.525z" fill="#FFF"/><path d="M75.31 4.05c32.903-6.047 57.509 3.21 57.509 3.21M4.87 2.767s18.659 9.115 54.94 3.194m16.019 15.542c4.642 5.79 14.681 6.166 18.876-.432 5.109-8.035 14.72-7.949 19.916.172 4.1 6.415 14.2 8.64 20.088-1.21M2 21.243s10.938 10.16 19.105 1.383c6.754-7.258 14.72-4.838 19.05.518 5.61 6.94 15.672 6.307 19.655-.95m8.183 12.886L67.53 2.811" stroke="#FFF" stroke-width="4" stroke-linecap="round"/><path d="M75.31 4.05v19.896c3.594 2.322 5.97 6.359 5.97 10.948 0 7.202-5.853 13.043-13.07 13.043-7.219 0-13.072-5.84-13.072-13.043 0-4.168 1.96-7.88 5.015-10.264V6.038" stroke="#FFF" stroke-width="4" stroke-linecap="round" stroke-linejoin="round"/></g></svg>