<?xml version="1.0" encoding="utf-8"?>
<!-- Generator: Adobe Illustrator 16.0.0, SVG Export Plug-In . SVG Version: 6.00 Build 0)  -->
<!DOCTYPE svg PUBLIC "-//W3C//DTD SVG 1.1//EN" "http://www.w3.org/Graphics/SVG/1.1/DTD/svg11.dtd">
<svg version="1.1" id="Layer_1" xmlns="http://www.w3.org/2000/svg" xmlns:xlink="http://www.w3.org/1999/xlink" x="0px" y="0px"
	 width="200px" height="100px" viewBox="0 0 200 100" enable-background="new 0 0 200 100" xml:space="preserve">
<g>
	<g>
		<path fill="#231F20" d="M24.829,73.378l1.491-0.23l-0.777-9.049h-0.105l-3.716,9.805h-1.134l-3.8-10.057h-0.105l-0.735,9.007
			l1.89,0.504v0.378h-4.388v-0.357l1.617-0.524l1.071-10.562l-1.827-0.42v-0.377h4.556l3.38,8.797l3.38-8.797h4.262v0.356
			l-1.806,0.399l1.134,10.918l1.428,0.188v0.378h-5.816V73.378z"/>
		<path fill="#231F20" d="M31.194,73.421l1.491-0.295v-7.895h-1.638v-0.377l3.107-0.883h1.071v9.113l1.554,0.314v0.336h-5.585
			V73.421z M34.049,59.437c0.966,0,1.554,0.504,1.554,1.407c0,0.924-0.588,1.448-1.554,1.448c-0.924,0-1.575-0.524-1.575-1.448
			C32.475,59.94,33.125,59.437,34.049,59.437z"/>
		<path fill="#231F20" d="M37.452,73.421l1.386-0.295v-7.895H37.2v-0.377l2.981-0.883H41l0.273,1.155
			c0.924-0.63,2.037-1.155,2.834-1.155c0.336,0,0.63,0.021,0.966,0.105l-0.399,2.541h-0.315l-2.541-1.303l-0.462,0.127l0.021,0.104
			v7.475l1.743,0.378v0.336h-5.669V73.421z"/>
		<path fill="#231F20" d="M46.167,67.331v-2.582h0.021c0.924-0.398,2.729-0.777,3.926-0.777c2.121,0,3.569,1.029,3.569,3.107v5.774
			l1.323,0.524v0.357h-3.422l-0.399-1.322c-0.546,0.566-1.701,1.49-3.065,1.49c-1.407,0-2.604-0.84-2.604-2.436
			c0-1.826,1.953-2.918,4.682-2.918h0.945v-1.827c0-1.407-0.693-2.079-1.701-2.079c-0.315,0-0.777,0.127-1.218,0.315l-1.218,2.372
			H46.167z M51.143,69.158H50.24c-1.155,0-2.1,0.483-2.1,1.764c0,1.028,0.735,1.512,1.596,1.512c0.441,0,0.987-0.168,1.407-0.378
			V69.158z"/>
		<path fill="#231F20" d="M62.23,64.979c-0.378-0.168-0.777-0.252-1.134-0.252c-1.617,0-2.771,1.555-2.771,3.843
			c0,2.456,1.491,3.989,3.191,3.989c0.945,0,1.722-0.21,2.625-0.798l0.231,0.315c-0.588,0.84-2.226,1.826-3.989,1.826
			c-2.876,0-4.745-1.806-4.745-4.725c0-3.064,2.184-5.207,4.976-5.207c1.449,0,2.541,0.295,3.632,0.903v2.876h-0.735L62.23,64.979z"
			/>
		<path fill="#231F20" d="M69.917,73.903c-2.75,0-4.745-1.113-4.745-4.787c0-3.191,2.373-5.145,4.913-5.145
			c2.96,0,4.787,1.407,4.787,5.039C74.872,72.118,72.562,73.903,69.917,73.903z M69.896,64.665c-1.68,0-1.974,2.121-1.974,4.053
			c0,2.225,0.567,4.472,2.205,4.472c1.596,0,1.974-2.036,1.974-3.927C72.1,67.374,71.722,64.665,69.896,64.665z"/>
		<path fill="#231F20" d="M75.629,73.421l1.491-0.315V60.172h-1.659v-0.378l2.939-0.818h1.26v14.088l1.554,0.336v0.336h-5.585
			V73.421z"/>
		<path fill="#231F20" d="M89.173,72.476c-1.134,0.986-2.079,1.406-3.317,1.406c-1.785,0-2.855-1.133-2.855-3.443v-5.207h-1.659
			v-0.377l3.107-0.883h1.092v5.795c0,1.869,0.693,2.688,2.016,2.688c0.567,0,1.008-0.063,1.575-0.293v-6.93h-1.638v-0.377
			l3.107-0.883h1.071v8.882l1.344,0.524v0.357h-3.422L89.173,72.476z"/>
		<path fill="#231F20" d="M93.5,73.421l1.491-0.315V60.172h-1.659v-0.378l2.939-0.818h1.26v14.088l1.554,0.336v0.336H93.5V73.421z"
			/>
		<path fill="#231F20" d="M103.706,77.767l1.554-0.357V65.231h-1.658v-0.377l2.981-0.883h0.818l0.315,1.071
			c0.86-0.63,1.91-1.071,2.897-1.071c2.436,0,3.884,1.512,3.884,4.683c0,3.275-2.666,5.249-5.459,5.249
			c-0.44,0-0.84-0.021-1.238-0.063v3.527l1.848,0.377v0.357h-5.942V77.767z M107.801,65.421v7.475
			c0.378,0.168,0.776,0.294,1.218,0.294c1.974,0,2.708-2.016,2.708-4.179c0-2.1-1.134-3.82-2.646-3.82
			C108.619,65.19,108.179,65.274,107.801,65.421z"/>
		<path fill="#231F20" d="M115.256,73.421l1.491-0.315V60.172h-1.659v-0.378l2.939-0.818h1.26v14.088l1.554,0.336v0.336h-5.585
			V73.421z"/>
		<path fill="#231F20" d="M121.913,67.331v-2.582h0.021c0.924-0.398,2.729-0.777,3.927-0.777c2.12,0,3.569,1.029,3.569,3.107v5.774
			l1.322,0.524v0.357h-3.422l-0.399-1.322c-0.546,0.566-1.7,1.49-3.065,1.49c-1.406,0-2.604-0.84-2.604-2.436
			c0-1.826,1.953-2.918,4.683-2.918h0.944v-1.827c0-1.407-0.692-2.079-1.7-2.079c-0.315,0-0.777,0.127-1.218,0.315l-1.218,2.372
			H121.913z M126.889,69.158h-0.902c-1.155,0-2.1,0.483-2.1,1.764c0,1.028,0.734,1.512,1.596,1.512c0.44,0,0.986-0.168,1.406-0.378
			V69.158z"/>
		<path fill="#231F20" d="M131.278,73.421l1.512-0.336v-7.854h-1.638v-0.377l2.981-0.883h0.819l0.336,1.533
			c1.05-0.924,2.246-1.533,3.632-1.533c1.743,0,2.813,1.219,2.813,3.527v5.586l1.428,0.314v0.336h-5.459v-0.314l1.491-0.336v-5.103
			c0-1.806-0.777-2.52-2.058-2.52c-0.609,0-1.26,0.188-1.806,0.42v7.181l1.406,0.336v0.336h-5.459V73.421z"/>
		<path fill="#231F20" d="M150.45,73.21c-0.84,0.399-1.722,0.693-2.897,0.693c-1.7,0-3.149-0.65-3.149-3.129v-5.563h-1.386v-0.399
			l1.47-0.461l1.092-2.52h1.407v2.54h3.149v0.84h-3.149v5.459c0.021,1.386,0.566,2.226,1.932,2.226c0.462,0,0.966-0.105,1.406-0.21
			L150.45,73.21z"/>
		<path fill="#231F20" d="M157.128,72.476c0.798,0,1.806-0.273,2.646-0.714l0.231,0.315c-0.714,0.881-2.373,1.826-4.137,1.826
			c-2.939,0-4.766-1.658-4.766-4.725c0-3.191,2.288-5.207,4.997-5.207c2.75,0,4.199,1.827,4.22,4.787h-6.529v0.021
			C153.79,71.342,155.49,72.476,157.128,72.476z M153.811,68.13l3.717-0.127c0-1.7-0.504-3.359-1.722-3.359
			C154.692,64.644,153.937,65.903,153.811,68.13z"/>
		<path fill="#231F20" d="M160.973,73.421l1.49-0.315V60.172h-1.658v-0.378l2.939-0.818h1.26v14.088l1.554,0.336v0.336h-5.585
			V73.421z"/>
		<path fill="#231F20" d="M171.892,73.903c-2.751,0-4.745-1.113-4.745-4.787c0-3.191,2.372-5.145,4.913-5.145
			c2.96,0,4.786,1.407,4.786,5.039C176.846,72.118,174.537,73.903,171.892,73.903z M171.87,64.665c-1.68,0-1.974,2.121-1.974,4.053
			c0,2.225,0.567,4.472,2.205,4.472c1.596,0,1.973-2.036,1.973-3.927C174.074,67.374,173.697,64.665,171.87,64.665z"/>
		<path fill="#231F20" d="M177.835,73.421l1.386-0.295v-7.895h-1.638v-0.377l2.981-0.883h0.818l0.273,1.155
			c0.924-0.63,2.037-1.155,2.834-1.155c0.336,0,0.631,0.021,0.967,0.105l-0.399,2.541h-0.315l-2.54-1.303l-0.462,0.127l0.021,0.104
			v7.475l1.742,0.378v0.336h-5.669V73.421z"/>
	</g>
	<g>
		<path fill="#8AC341" d="M35.564,89.626V88.81h10.119v0.816H35.564z"/>
		<path fill="#8AC341" d="M53.955,92.167v-3.809c0-0.479-0.109-0.838-0.328-1.074s-0.561-0.354-1.026-0.354
			c-0.616,0-1.067,0.166-1.354,0.499s-0.43,0.883-0.43,1.649v3.088h-0.892V86.28h0.725l0.145,0.806h0.043
			c0.183-0.29,0.438-0.515,0.768-0.674s0.696-0.239,1.101-0.239c0.709,0,1.243,0.171,1.601,0.513s0.537,0.89,0.537,1.642v3.84
			H53.955z"/>
		<path fill="#8AC341" d="M60.298,92.167l-0.177-0.838h-0.043c-0.293,0.369-0.586,0.618-0.878,0.749
			c-0.292,0.131-0.656,0.196-1.093,0.196c-0.583,0-1.041-0.15-1.372-0.451c-0.332-0.301-0.497-0.729-0.497-1.283
			c0-1.189,0.951-1.813,2.852-1.869l0.999-0.033v-0.365c0-0.461-0.099-0.803-0.298-1.022c-0.198-0.221-0.516-0.331-0.953-0.331
			c-0.491,0-1.045,0.15-1.665,0.451l-0.274-0.682c0.29-0.157,0.608-0.281,0.954-0.371c0.345-0.089,0.692-0.134,1.039-0.134
			c0.702,0,1.222,0.155,1.561,0.468c0.338,0.311,0.507,0.811,0.507,1.498v4.018H60.298z M58.794,85.501
			c-0.501,0-0.892-0.122-1.171-0.367s-0.435-0.603-0.467-1.072h0.559c0.021,0.176,0.069,0.313,0.142,0.414
			c0.074,0.101,0.176,0.174,0.307,0.221c0.13,0.046,0.348,0.069,0.652,0.069c0.362,0,0.628-0.058,0.8-0.172s0.276-0.292,0.312-0.532
			h0.559c-0.036,0.451-0.203,0.805-0.502,1.059C59.685,85.374,59.289,85.501,58.794,85.501z M58.284,91.538
			c0.555,0,0.991-0.151,1.308-0.456c0.316-0.305,0.475-0.73,0.475-1.278v-0.531l-0.892,0.037c-0.709,0.025-1.22,0.135-1.534,0.33
			c-0.313,0.195-0.47,0.499-0.47,0.91c0,0.322,0.098,0.568,0.293,0.736C57.66,91.454,57.933,91.538,58.284,91.538z"/>
		<path fill="#8AC341" d="M66.593,90.562c0,0.547-0.204,0.97-0.612,1.268c-0.408,0.297-0.981,0.445-1.719,0.445
			c-0.781,0-1.389-0.123-1.826-0.371v-0.826c0.283,0.143,0.586,0.256,0.911,0.338c0.324,0.082,0.636,0.123,0.937,0.123
			c0.465,0,0.824-0.074,1.074-0.223s0.376-0.375,0.376-0.68c0-0.229-0.099-0.425-0.298-0.588c-0.198-0.163-0.586-0.355-1.163-0.577
			c-0.548-0.204-0.937-0.382-1.168-0.534c-0.23-0.152-0.402-0.325-0.516-0.519c-0.112-0.193-0.169-0.425-0.169-0.692
			c0-0.48,0.195-0.859,0.585-1.137s0.926-0.416,1.606-0.416c0.634,0,1.253,0.129,1.858,0.387l-0.317,0.725
			c-0.591-0.243-1.126-0.365-1.606-0.365c-0.422,0-0.741,0.066-0.956,0.199s-0.322,0.315-0.322,0.548
			c0,0.157,0.04,0.292,0.121,0.403c0.08,0.11,0.21,0.216,0.389,0.316s0.523,0.245,1.031,0.436c0.698,0.254,1.17,0.51,1.416,0.768
			C66.471,89.847,66.593,90.171,66.593,90.562z"/>
		<path fill="#8AC341" d="M70.396,92.274c-0.852,0-1.512-0.263-1.979-0.787c-0.467-0.524-0.701-1.267-0.701-2.227
			c0-0.984,0.237-1.745,0.711-2.282c0.475-0.537,1.15-0.806,2.028-0.806c0.283,0,0.566,0.03,0.849,0.092
			c0.283,0.061,0.505,0.132,0.666,0.215l-0.274,0.757c-0.197-0.079-0.412-0.145-0.645-0.196s-0.438-0.078-0.618-0.078
			c-1.196,0-1.794,0.764-1.794,2.289c0,0.723,0.146,1.277,0.438,1.664c0.292,0.387,0.724,0.58,1.297,0.58
			c0.491,0,0.994-0.105,1.509-0.316v0.789C71.49,92.173,70.994,92.274,70.396,92.274z"/>
		<path fill="#8AC341" d="M74.118,86.28v3.818c0,0.48,0.109,0.838,0.328,1.074s0.561,0.355,1.026,0.355
			c0.616,0,1.066-0.169,1.351-0.506c0.285-0.336,0.427-0.886,0.427-1.648V86.28h0.892v5.887h-0.736l-0.129-0.789h-0.048
			c-0.183,0.289-0.436,0.512-0.76,0.666c-0.324,0.153-0.693,0.23-1.109,0.23c-0.716,0-1.252-0.17-1.609-0.51
			c-0.356-0.341-0.534-0.885-0.534-1.633V86.28H74.118z"/>
		<path fill="#8AC341" d="M81.933,91.538c0.158,0,0.31-0.011,0.457-0.034s0.263-0.048,0.349-0.073v0.683
			c-0.097,0.047-0.239,0.085-0.427,0.115c-0.188,0.03-0.357,0.046-0.508,0.046c-1.139,0-1.708-0.6-1.708-1.799v-3.502h-0.843v-0.43
			l0.843-0.371l0.376-1.257h0.516v1.364h1.708v0.693h-1.708v3.464c0,0.354,0.084,0.627,0.252,0.816S81.64,91.538,81.933,91.538z"/>
		<path fill="#8AC341" d="M90.779,91.378h-0.048c-0.412,0.598-1.028,0.896-1.848,0.896c-0.77,0-1.369-0.264-1.796-0.789
			c-0.428-0.527-0.642-1.275-0.642-2.246c0-0.97,0.215-1.724,0.645-2.261s1.028-0.806,1.794-0.806c0.798,0,1.411,0.29,1.837,0.87
			h0.07l-0.038-0.425l-0.021-0.413V83.81h0.892v8.357h-0.725L90.779,91.378z M88.996,91.528c0.609,0,1.05-0.166,1.324-0.497
			c0.273-0.331,0.411-0.866,0.411-1.604v-0.188c0-0.834-0.139-1.429-0.417-1.785c-0.277-0.356-0.72-0.535-1.329-0.535
			c-0.523,0-0.923,0.204-1.2,0.61c-0.278,0.406-0.417,0.979-0.417,1.722c0,0.752,0.138,1.319,0.414,1.702
			S88.462,91.528,88.996,91.528z"/>
		<path fill="#8AC341" d="M93.438,84.685c0-0.203,0.05-0.354,0.15-0.448s0.226-0.142,0.376-0.142c0.143,0,0.267,0.048,0.371,0.145
			s0.156,0.245,0.156,0.445c0,0.201-0.052,0.351-0.156,0.449s-0.228,0.147-0.371,0.147c-0.15,0-0.276-0.049-0.376-0.147
			S93.438,84.886,93.438,84.685z M94.405,92.167h-0.892V86.28h0.892V92.167z"/>
		<path fill="#8AC341" d="M100.324,92.167v-3.809c0-0.479-0.109-0.838-0.328-1.074s-0.561-0.354-1.026-0.354
			c-0.616,0-1.067,0.166-1.354,0.499s-0.43,0.883-0.43,1.649v3.088h-0.892V86.28h0.725l0.145,0.806h0.043
			c0.183-0.29,0.438-0.515,0.768-0.674s0.696-0.239,1.101-0.239c0.709,0,1.243,0.171,1.601,0.513s0.538,0.89,0.538,1.642v3.84
			H100.324z"/>
		<path fill="#8AC341" d="M104.948,91.538c0.158,0,0.31-0.011,0.457-0.034c0.146-0.023,0.263-0.048,0.349-0.073v0.683
			c-0.097,0.047-0.239,0.085-0.427,0.115c-0.188,0.03-0.357,0.046-0.508,0.046c-1.139,0-1.708-0.6-1.708-1.799v-3.502h-0.843v-0.43
			l0.843-0.371l0.376-1.257h0.516v1.364h1.708v0.693h-1.708v3.464c0,0.354,0.084,0.627,0.253,0.816
			C104.424,91.443,104.655,91.538,104.948,91.538z"/>
		<path fill="#8AC341" d="M109.616,86.173c0.261,0,0.496,0.021,0.703,0.064l-0.123,0.827c-0.244-0.054-0.459-0.081-0.645-0.081
			c-0.477,0-0.884,0.193-1.222,0.58c-0.339,0.387-0.508,0.869-0.508,1.445v3.158h-0.892V86.28h0.735l0.103,1.09h0.043
			c0.218-0.383,0.481-0.678,0.789-0.886C108.909,86.276,109.247,86.173,109.616,86.173z"/>
		<path fill="#8AC341" d="M110.927,89.626V88.81h2.637v0.816H110.927z"/>
		<path fill="#8AC341" d="M115.798,86.28v3.818c0,0.48,0.109,0.838,0.328,1.074c0.218,0.236,0.561,0.355,1.025,0.355
			c0.616,0,1.066-0.169,1.351-0.506c0.285-0.336,0.428-0.886,0.428-1.648V86.28h0.892v5.887h-0.736l-0.129-0.789h-0.048
			c-0.183,0.289-0.437,0.512-0.761,0.666c-0.323,0.153-0.693,0.23-1.108,0.23c-0.717,0-1.253-0.17-1.609-0.51
			c-0.355-0.341-0.534-0.885-0.534-1.633V86.28H115.798z"/>
		<path fill="#8AC341" d="M125.74,92.167v-3.809c0-0.479-0.109-0.838-0.328-1.074c-0.218-0.236-0.561-0.354-1.025-0.354
			c-0.616,0-1.067,0.166-1.354,0.499c-0.287,0.333-0.43,0.883-0.43,1.649v3.088h-0.892V86.28h0.725l0.146,0.806h0.043
			c0.183-0.29,0.438-0.515,0.768-0.674c0.33-0.159,0.696-0.239,1.102-0.239c0.709,0,1.242,0.171,1.601,0.513
			c0.357,0.342,0.537,0.89,0.537,1.642v3.84H125.74z"/>
		<path fill="#8AC341" d="M132.609,92.167l-2.234-5.887h0.956l1.268,3.491c0.287,0.816,0.455,1.347,0.505,1.59h0.043
			c0.04-0.189,0.164-0.583,0.373-1.179c0.21-0.597,0.68-1.897,1.41-3.902h0.956l-2.234,5.887H132.609z"/>
		<path fill="#8AC341" d="M136.756,84.685c0-0.203,0.051-0.354,0.15-0.448c0.101-0.095,0.226-0.142,0.376-0.142
			c0.144,0,0.267,0.048,0.371,0.145c0.104,0.097,0.155,0.245,0.155,0.445c0,0.201-0.052,0.351-0.155,0.449
			c-0.104,0.099-0.228,0.147-0.371,0.147c-0.15,0-0.275-0.049-0.376-0.147C136.807,85.035,136.756,84.886,136.756,84.685z
			 M137.723,92.167h-0.892V86.28h0.892V92.167z"/>
		<path fill="#8AC341" d="M143.411,90.562c0,0.547-0.204,0.97-0.612,1.268c-0.408,0.297-0.981,0.445-1.719,0.445
			c-0.781,0-1.39-0.123-1.826-0.371v-0.826c0.282,0.143,0.586,0.256,0.91,0.338s0.637,0.123,0.938,0.123
			c0.465,0,0.823-0.074,1.074-0.223c0.25-0.148,0.376-0.375,0.376-0.68c0-0.229-0.1-0.425-0.299-0.588
			c-0.198-0.163-0.586-0.355-1.162-0.577c-0.548-0.204-0.938-0.382-1.169-0.534c-0.23-0.152-0.402-0.325-0.516-0.519
			c-0.112-0.193-0.169-0.425-0.169-0.692c0-0.48,0.195-0.859,0.586-1.137c0.39-0.277,0.926-0.416,1.605-0.416
			c0.634,0,1.254,0.129,1.858,0.387l-0.316,0.725c-0.591-0.243-1.126-0.365-1.606-0.365c-0.422,0-0.741,0.066-0.956,0.199
			s-0.322,0.315-0.322,0.548c0,0.157,0.04,0.292,0.121,0.403c0.08,0.11,0.21,0.216,0.39,0.316c0.179,0.101,0.522,0.245,1.031,0.436
			c0.698,0.254,1.17,0.51,1.415,0.768S143.411,90.171,143.411,90.562z"/>
		<path fill="#8AC341" d="M147.214,89.626V88.81h10.119v0.816H147.214z"/>
	</g>
	<g>
		<path fill="#8AC341" d="M98.909,2.773c0,0-1.785,3.049-1.238,5.357c0.555,2.311,3.25,6.57,3.482,9.808
			c0.173,2.625-0.467,3.324-0.467,3.324s3.829-4.749,3.733-7.335c-0.102-2.729-0.619-5.228-3.44-7.95
			C98.714,3.783,98.909,2.773,98.909,2.773"/>
		<path fill="#C8D92E" d="M99.255,23.264c0,0,1.578-2.872,1.006-4.989c-0.564-2.122-2.914-6.232-3.092-8.665
			c-0.168-2.433,0.602-4.279,0.602-4.279s-4.281,3.573-3.896,7.764c0.215,2.386,1.291,5.246,3.389,7.26
			C99.351,22.382,99.255,23.264,99.255,23.264"/>
		<path fill="#8AC341" d="M119.531,11.307c0,0-3.533,0.175-5.164,1.9c-1.635,1.722-3.715,6.314-6.297,8.275
			c-2.1,1.596-3.045,1.44-3.045,1.44s6.08,0.609,8.193-0.891c2.229-1.585,4.027-3.391,4.762-7.239
			C118.572,11.702,119.531,11.307,119.531,11.307"/>
		<path fill="#C8D92E" d="M102.582,22.823c0,0,3.254-0.259,4.721-1.889c1.463-1.636,3.611-5.854,5.551-7.337
			c1.938-1.474,3.906-1.843,3.906-1.843s-5.328-1.625-8.629,0.995c-1.875,1.484-3.676,3.949-4.211,6.81
			C103.376,22.423,102.582,22.823,102.582,22.823"/>
		<path fill="#8AC341" d="M124.891,31.763c0,0-2.406-2.585-4.762-2.728c-2.373-0.138-7.238,1.218-10.396,0.501
			c-2.574-0.592-3.055-1.41-3.055-1.41s3.439,5.051,5.939,5.701c2.643,0.69,5.184,0.917,8.613-0.999
			C123.977,31.295,124.891,31.763,124.891,31.763"/>
		<path fill="#C8D92E" d="M105.176,26.187c0,0,2.297,2.328,4.49,2.399c2.189,0.07,6.803-0.992,9.176-0.455
			c2.379,0.544,3.924,1.815,3.924,1.815s-2.178-5.133-6.303-5.98c-2.344-0.48-5.391-0.281-7.922,1.15
			C105.99,26.542,105.176,26.187,105.176,26.187"/>
		<path fill="#8AC341" d="M111.203,49.144c0,0,0.664-3.467-0.625-5.461c-1.285-1.988-5.256-5.105-6.547-8.076
			c-1.051-2.417-0.671-3.301-0.671-3.301s-2.032,5.764-1.082,8.163c1.01,2.545,2.337,4.72,5.899,6.353
			C111.047,48.125,111.203,49.144,111.203,49.144"/>
		<path fill="#C8D92E" d="M104.027,29.948c0,0-0.515,3.229,0.723,5.044c1.248,1.805,4.824,4.889,5.805,7.125
			c0.98,2.238,0.865,4.233,0.865,4.233s2.842-4.794,1.084-8.619c-1.002-2.173-2.969-4.507-5.617-5.709
			C104.236,30.819,104.027,29.948,104.027,29.948"/>
		<path fill="#8AC341" d="M90.04,49.417c0,0,3.059-1.763,3.721-4.035c0.666-2.281,0.439-7.316,1.848-10.242
			c1.141-2.376,2.051-2.655,2.051-2.655s-5.688,2.22-6.883,4.509c-1.273,2.427-2.053,4.856-0.951,8.613
			C90.706,48.634,90.04,49.417,90.04,49.417"/>
		<path fill="#C8D92E" d="M99.882,31.447c0,0-2.785,1.713-3.342,3.833c-0.563,2.124-0.553,6.857-1.604,9.061
			c-1.057,2.197-2.645,3.415-2.645,3.415s5.492-0.977,7.232-4.81c0.992-2.174,1.477-5.191,0.656-7.985
			C99.36,32.163,99.882,31.447,99.882,31.447"/>
		<path fill="#8AC341" d="M76.448,34.08c0,0,3.367,1.052,5.494,0c2.115-1.064,5.658-4.661,8.76-5.611
			c2.521-0.781,3.352-0.3,3.352-0.3s-5.496-2.664-7.992-1.984c-2.643,0.713-4.957,1.79-6.969,5.155
			C77.476,34.04,76.448,34.08,76.448,34.08"/>
		<path fill="#C8D92E" d="M96.315,29.098c0,0-3.146-0.879-5.082,0.153c-1.932,1.033-5.404,4.249-7.736,4.971
			c-2.33,0.72-4.309,0.387-4.309,0.387s4.449,3.363,8.453,2.041c2.268-0.756,4.807-2.445,6.299-4.941
			C95.437,29.2,96.315,29.098,96.315,29.098"/>
		<path fill="#8AC341" d="M79.315,13.249c0,0,1.547,3.181,3.771,4.002c2.229,0.826,7.268,0.943,10.088,2.546
			c2.281,1.31,2.51,2.24,2.51,2.24s-1.816-5.831-4.023-7.188c-2.33-1.428-4.695-2.379-8.527-1.548
			C80.052,13.974,79.315,13.249,79.315,13.249"/>
		<path fill="#C8D92E" d="M96.556,24.33c0,0-1.514-2.907-3.59-3.611c-2.08-0.699-6.799-1.027-8.916-2.233
			c-2.129-1.205-3.234-2.872-3.234-2.872s0.594,5.549,4.297,7.553c2.1,1.142,5.074,1.836,7.92,1.215
			C95.878,23.752,96.556,24.33,96.556,24.33"/>
	</g>
</g>
</svg>
