<svg id="Layer_1" data-name="Layer 1" xmlns="http://www.w3.org/2000/svg" viewBox="0 0 359.59 359.59"><defs><style>.cls-1{fill:#1b8040;}</style></defs><title>Icon</title><path class="cls-1" d="M210.54,29.69c21.58,3.82,41.16,13,59.11,25.6,1.06,0.74,2.2,1.37,4.08,2.53V44c4,0,7.47-.21,10.84.14A3.87,3.87,0,0,1,287,47c0.17,11.64.11,23.29,0.11,35.67-3.69,0-7.78,0-11.86,0-7.33,0-14.68-.39-22,0-4.86.26-6.3-1.66-5.77-6a7.43,7.43,0,0,0,0-2c-0.57-3.68.89-5.18,4.68-5,4.22,0.24,8.47.05,13.82,0.05C224.12,34,148.52,25.85,90.83,66.68,34.08,106.85,12.69,195.95,62.57,262.39l-9.22,8.89c-1.1-1.41-2.31-2.88-3.43-4.41C-9.88,184.94,27,60.13,134.33,32.34,143.94,29.86,177,23.75,210.54,29.69Z"/><path class="cls-1" d="M179.07,90.86c2,3.31,3.62,5.75,4.94,8.36q18.5,36.8,36.85,73.68c1.91,3.85,3,8.12,4.55,12.14,10.94,27.73-9,52.55-29.89,59.34-28.84,9.38-59.27-7.48-65-36.6a40.69,40.69,0,0,1,3.25-24.91c10.24-22.57,20.85-45,31.63-67.29C169.37,107.39,174.2,99.62,179.07,90.86Z"/><path class="cls-1" d="M83.05,301.27V315a102.47,102.47,0,0,1-10.4-.13A3.86,3.86,0,0,1,70,312.21c-0.18-11.78-.12-23.57-0.12-35.76,12.07,0,24.35-.06,36.62.12,1,0,2.36,1.51,2.78,2.61,0.5,1.32,0,3,.23,4.45,0.69,4.39-1,6.07-5.47,5.71a45.66,45.66,0,0,0-12,.68,127,127,0,0,0,57.95,26.93c38.55,7.37,74.8.68,108.46-19.52,62.7-37.62,88.2-133.17,36.16-200.73l8.67-9.43a147.78,147.78,0,0,1,26.27,50.64c22.4,76.89-18.26,170.19-115.06,190.82-46.19,9.85-88.9,1.47-127.85-25.45C85.82,302.65,84.79,302.21,83.05,301.27Z"/><path class="cls-1" d="M151.76,73.49A6.58,6.58,0,0,1,145,80a6.69,6.69,0,0,1-6.66-7.14A6.72,6.72,0,0,1,151.76,73.49Z"/><path class="cls-1" d="M210.85,66.5a6.86,6.86,0,0,1,6.82,6.58A6.68,6.68,0,0,1,211.3,80a6.59,6.59,0,0,1-7.05-6.72A6.84,6.84,0,0,1,210.85,66.5Z"/><path class="cls-1" d="M90.81,105a6.71,6.71,0,0,1-6.71,6.6A6.84,6.84,0,0,1,77.37,105a6.74,6.74,0,0,1,7-6.81A6.65,6.65,0,0,1,90.81,105Z"/><path class="cls-1" d="M189.7,293.95a6.71,6.71,0,0,1-13.42-.26A6.71,6.71,0,1,1,189.7,293.95Z"/><path class="cls-1" d="M275.74,114a6.52,6.52,0,0,1-6.82-6.87,6.8,6.8,0,0,1,6.63-6.68,7,7,0,0,1,6.91,6.48A6.75,6.75,0,0,1,275.74,114Z"/><path class="cls-1" d="M126.76,151a6.73,6.73,0,0,1-6.68,6.63,6.8,6.8,0,0,1-6.74-7.09,6.72,6.72,0,0,1,6.95-6.34A6.64,6.64,0,0,1,126.76,151Z"/><path class="cls-1" d="M242.66,150.74a6.71,6.71,0,0,1-13.41.56A6.71,6.71,0,1,1,242.66,150.74Z"/><path class="cls-1" d="M62.88,189.36a6.72,6.72,0,0,1,6.95,6.34,6.64,6.64,0,0,1-6.19,7.07,6.76,6.76,0,0,1-7.25-6.55A6.83,6.83,0,0,1,62.88,189.36Z"/><path class="cls-1" d="M292.84,189.36a6.72,6.72,0,1,1-.21,13.43A6.72,6.72,0,0,1,292.84,189.36Z"/><path class="cls-1" d="M115.46,247.69a7,7,0,0,1-7.32,6.64,6.85,6.85,0,0,1,.89-13.67A7,7,0,0,1,115.46,247.69Z"/><path class="cls-1" d="M247.28,254.35a6.87,6.87,0,0,1,.26-13.73A6.87,6.87,0,0,1,247.28,254.35Z"/></svg>