<svg id="Layer_1" data-name="Layer 1" xmlns="http://www.w3.org/2000/svg" viewBox="0 0 359.59 359.59"><defs><style>.cls-1{fill:#1b8040;}</style></defs><title>Icon</title><path class="cls-1" d="M152.54,194.28q-52,0-104,0a40.07,40.07,0,0,1-9.43-.77c-9-2.21-14.87-10.79-14.29-20.32A19.14,19.14,0,0,1,41.74,155a64.9,64.9,0,0,1,8-.33q104,0,207.91,0c7.35,0,7.35,0,7.36-7.28,0-3-.07-6,0-9,0.14-3.69,2-5,5.2-2.89q27.42,17.85,54.73,35.88c3,2,2.86,4.36-.1,6.31q-27.12,17.85-54.32,35.59c-3.53,2.29-5.28,1.31-5.5-2.83a65,65,0,0,1,0-10c0.48-4.74-1.15-6.34-6.06-6.29-21,.24-42,0.1-63,0.1H152.54Z"/><path class="cls-1" d="M181.52,201.93v117c-5.49,0-10.91.11-16.32-.12-0.82,0-1.87-1.51-2.28-2.53a9.82,9.82,0,0,1-.15-3.46c0-34.83.09-69.66-.1-104.48,0-4.92,1.14-7,6.38-6.47C173,202.27,177,201.93,181.52,201.93Z"/><path class="cls-1" d="M180.62,30V146.93c-5.31,0-10.55.14-15.76-.15-0.75,0-1.83-2.09-2-3.3a68.6,68.6,0,0,1-.12-8c0-33.16.1-66.32-.11-99.48,0-4.89,1.45-6.54,6.23-6.07C172.63,30.3,176.44,30,180.62,30Z"/><path class="cls-1" d="M251.55,80.44a8.08,8.08,0,1,1-.25,16.15A8.08,8.08,0,0,1,251.55,80.44Z"/><path class="cls-1" d="M251.41,268.52a8.06,8.06,0,1,1,8.2-7.79A8.31,8.31,0,0,1,251.41,268.52Z"/><path class="cls-1" d="M259.61,52a7.89,7.89,0,0,1-7.84,7.94,8,8,0,0,1-8.29-7.51A8.07,8.07,0,0,1,259.61,52Z"/><path class="cls-1" d="M294.83,278.33a8.06,8.06,0,0,1-7.59,8.24A8,8,0,1,1,294.83,278.33Z"/><path class="cls-1" d="M319.19,268.52a8.07,8.07,0,1,1,.35-16.13A8.07,8.07,0,0,1,319.19,268.52Z"/><path class="cls-1" d="M216.93,98.48a8.08,8.08,0,1,1-.51,16.14A8.08,8.08,0,0,1,216.93,98.48Z"/><path class="cls-1" d="M294.83,242.3a7.9,7.9,0,0,1-15.79.05,7.83,7.83,0,0,1,8.09-8.12A7.93,7.93,0,0,1,294.83,242.3Z"/><path class="cls-1" d="M251.59,231.94a7.89,7.89,0,1,1,8-7.79A8,8,0,0,1,251.59,231.94Z"/><path class="cls-1" d="M259.61,296.83a8.06,8.06,0,0,1-7.85,8,8.15,8.15,0,0,1-8.29-8.1,8,8,0,0,1,8.14-7.68A7.9,7.9,0,0,1,259.61,296.83Z"/><path class="cls-1" d="M251.37,132.84a7.9,7.9,0,1,1,.63-15.77A7.89,7.89,0,1,1,251.37,132.84Z"/><path class="cls-1" d="M294.84,106.63a8.08,8.08,0,0,1-7.85,8,8.08,8.08,0,0,1,.11-16.15A8.12,8.12,0,0,1,294.84,106.63Z"/><path class="cls-1" d="M327.12,88.61a8,8,0,0,1-7.83,8,8.07,8.07,0,1,1,.17-16.15A8,8,0,0,1,327.12,88.61Z"/><path class="cls-1" d="M294.83,70a7.89,7.89,0,0,1-15.77.67,7.83,7.83,0,0,1,7.77-8.43A7.93,7.93,0,0,1,294.83,70Z"/><path class="cls-1" d="M224.76,70.23a7.73,7.73,0,0,1-7.82,7.88,7.52,7.52,0,0,1-8-7.6,7.73,7.73,0,0,1,8-8.24A8.05,8.05,0,0,1,224.76,70.23Z"/><path class="cls-1" d="M224.77,278.43a8.17,8.17,0,0,1-7.74,8.14,8,8,0,0,1-.19-16.08A8.12,8.12,0,0,1,224.77,278.43Z"/><path class="cls-1" d="M217,250.07a7.53,7.53,0,0,1-8-7.55,7.73,7.73,0,0,1,7.39-8.28,8.06,8.06,0,0,1,8.42,7.89A7.72,7.72,0,0,1,217,250.07Z"/></svg>