<svg id="Layer_1" data-name="Layer 1" xmlns="http://www.w3.org/2000/svg" viewBox="0 0 359.59 359.59"><defs><style>.cls-1{fill:#1b8040;}</style></defs><title>Icon</title><path class="cls-1" d="M350.37,113.17c-2.26.27-3.57,0.54-4.88,0.56-30.17.5-60.27,0.08-90.24-4.34-6.54-1-13.72.08-20.2,1.74-7.17,1.84-8.72,7.33-5.41,14,3.2,6.44,6.15,13,9.61,19.3,0.95,1.73,3.15,3.1,5.08,3.88,5.2,2.1,10.81,3.28,15.8,5.75,8.84,4.37,17.38,4.75,26-.08,13.87-7.77,27.68-7.76,41.54,0,8.63,4.82,17.29,4.77,25.94,0,1.2-.66,2.44-1.23,3.69-1.8a5.31,5.31,0,0,1,1.18-.2,4.66,4.66,0,0,1,.53,1.19c2.11,14.35-.06,17.06-14.91,18.22a38.09,38.09,0,0,1-22.75-4.91c-9.58-5.62-19-5.55-28.72-.14-12.78,7.09-25.81,7-38.77.13-1.64-.87-3.33-1.63-6.29-3.07,16.66,43.62,6.17,77.55-35,98.22-27.88,14-56.17,10.09-80.52-9.58-26.2-21.18-33.1-48.79-21.9-80.91-5.66-2.63-11.06-5.62-16.8-7.67-7.11-2.54-14.16-1.48-20.78,2.27q-20.46,11.61-41.05.16c-8.8-4.91-17.57-5-26.41-.14-1.3.72-2.7,1.28-5,2.36,0.46-5.36.57-9.94,1.39-14.38,0.25-1.33,2.3-2.82,3.83-3.32,10.54-3.51,21.13-3.32,30.82,2.23,10.74,6.15,20.67,6,31.52,0,12.05-6.62,24.68-6,36.92.36,10.39,5.41,10.29,5.38,15.2-5.23,3.59-7.77,7.43-15.42,11.2-23.1,2.94-6,1.69-11.32-4.65-13.1-6.6-1.85-14-3.23-20.61-2.26-29.63,4.32-59.38,4.9-89.21,4.43-1.83,0-3.66-.17-6.53-0.32,1.72-4.48,2.88-8.36,4.76-11.86,0.6-1.12,3.08-1.67,4.72-1.71,16.62-.4,33.25-0.26,49.85-1.07,11.77-.57,23.47-3,35.23-3.38a91.74,91.74,0,0,1,25.28,2.46c14.23,3.6,20.92,20.73,13.75,33.75C135,147.29,128.21,164.11,122,180.93c-7.32,20-2.31,38.41,11.84,53.79,16.11,17.5,36.56,23.83,59.77,18.77,23-5,38.7-19,45.8-41.78a45,45,0,0,0-1-30.76c-6.87-16.94-13.66-34-22-50.21-6.37-12.34,0-26.71,10.71-31.67a46.67,46.67,0,0,1,26.6-4c29.09,4.26,58.31,5.39,87.64,4.66,2.86-.07,4.43.83,5.28,3.55C347.66,106.37,348.92,109.35,350.37,113.17Z"/><path class="cls-1" d="M180.2,97c3.8,6.82,7.32,12.47,10.19,18.43,10.31,21.4,21.09,42.61,30.39,64.45,12.14,28.49-10.2,51.75-31.73,56-26.75,5.29-53.33-15.08-52.74-41.34a40.72,40.72,0,0,1,2.38-12C148.86,152.74,164.36,125.53,180.2,97Z"/><path class="cls-1" d="M87.74,246a6.85,6.85,0,1,1-6.86-7.19A6.72,6.72,0,0,1,87.74,246Z"/><path class="cls-1" d="M286.38,245.48c-0.05,4.26-2.89,7.18-6.69,7.26a6.69,6.69,0,0,1-7-7,6.61,6.61,0,0,1,7.16-6.84C284.1,239.18,286.12,241.76,286.38,245.48Z"/><path class="cls-1" d="M19.64,236.93a7.09,7.09,0,0,1-6.71-7c0.16-3.57,3.65-6.85,7.18-6.47,3.91,0.42,6.12,2.86,6.4,6.7C26.78,233.7,23.24,237,19.64,236.93Z"/><path class="cls-1" d="M340.83,236.93c-3.6.09-7.15-3.16-6.92-6.71,0.25-3.85,2.44-6.3,6.36-6.74,3.52-.4,7,2.85,7.23,6.42A7.11,7.11,0,0,1,340.83,236.93Z"/><path class="cls-1" d="M61.68,198.64c-0.38,3.2-2.42,5.57-6.48,5.74a6.23,6.23,0,0,1-6.53-6.86c0.24-4.12,2.59-6.17,6.66-6.15C59.08,191.39,61.74,194.2,61.68,198.64Z"/><path class="cls-1" d="M311.79,198.43c-0.18,3.24-2.13,5.66-6.21,5.94a6.33,6.33,0,0,1-6.82-6.62c0.16-4.07,2.43-6.25,6.49-6.38C309.05,191.25,311.7,193.88,311.79,198.43Z"/></svg>